<?xml version="1.0" encoding="UTF-8" standalone="no"?>
<!-- Created for MapSVG plugin: http://mapsvg.com -->
<svg
   xmlns:mapsvg="http://mapsvg.com"
   xmlns:dc="http://purl.org/dc/elements/1.1/"
   xmlns:rdf="http://www.w3.org/1999/02/22-rdf-syntax-ns#"
   xmlns:svg="http://www.w3.org/2000/svg"
   xmlns="http://www.w3.org/2000/svg"
   width="900"
   height="725"
   viewbox="0 0 384 320"
   >
                    <g >
                        <path id="ISO-DO-01"  fill="#2F90F2" stroke="#FFFFFF" stroke-width="0.75" d="M495.596,460.661l0.186-2.453l2.595-2.727l-0.142-6.054&#xD;&#xA;     l-8.377-8.475l3.034-1.664l1.302-5.748l1.884-1.358l2.594,1.062l2.026,5.146l5.047,4.686l11.979-3.175l3.471,2.266l-1.697,8.345&#xD;&#xA;       l0,0l-1.96-0.274l-7.063,3.492l-5.103,4.664L495.596,460.661z"/>
                    </g>
                <g >
                    <path  id="ISO-DO-02" fill="#2F90F2" stroke="#FFFFFF" stroke-width="0.75" d="M281.191,321.536l6.745-3.745l5.475,5.497l-1.686,3.35&#xD;&#xA;      l0.416,3.789l4.216,4.227v2.102l-2.946,1.248l0.416,10.5l3.789,4.642l-0.427,3.428l1.391,2.3l7.008,4.806l6.34,9.275l4.632-0.394&#xD;&#xA;      l6.329,1.774l5.289,4.5l1.435,4.359v7.205l-0.854,5.398l-2.507,2.847l0,0l5.891,4.226l2.53,4.204l0.416,7.128l-2.946,4.599&#xD;&#xA;        l0.843,1.686l9.691,6.757l3.788,8.409l5.475-0.811l1.259,2.945l8.004,2.147l3.373,4.631l5.891,0.876l1.26,2.102l-1.26,0.832v2.519&#xD;&#xA;     l2.102,1.271v2.518l2.102,3.361l-0.427,2.935l4.052,2.792l0,0l1.839,3.099v3.351l-4.643,6.251l-0.427,6.275l1.259,5.868&#xD;&#xA;       l-2.53,5.848l-9.69,2.88l-9.264,0.372l-1.215,1.149l0,0l-2.026-1.577v-1.916l2.749-6.033l1.96-0.481l-0.789-7.402l1.5-4.183&#xD;&#xA;       l-2.88-11.925l-4.708-3.152l-16.359-3.088l-4.117,0.613l-1.511,3.362l-3.668,1.577l1.763,6.514l-5.562,6.986l-4.117,2.125&#xD;&#xA;     l-11.847,0.274l-0.197-1.851l-2.157-0.481l-1.96,1.16l0.394,2.058l-4.314,2.88l0.263-1.237l-1.632-0.131l1.565-1.916l-3.274-1.237&#xD;&#xA;     l-0.591,1.577l-3.208,1.303l-1.96,2.946l-0.197,3.427l-3.077,4.106l-8.048,7.676l-9.942,3.767l-2.682-2.43l0,0l2.551-2.048&#xD;&#xA;        l2.114-7.523l-0.844-3.767l-4.631-6.723l2.956-2.497v-2.09l-3.373-2.114l-4.632,3.745l-5.059-1.708l-2.102-4.194l-3.789,0.394&#xD;&#xA;     l-2.945-6.723l7.161-2.891l2.113-9.625l4.215-0.81l1.686-2.08l-1.259-4.194l-6.318-3.811l-3.361-7.566l0,0l2.53,0.854l2.102,5.036&#xD;&#xA;     l7.588-3.722l-4.631-4.632l-29.06-10.227l-7.161-6.745l-1.26-2.803l0,0l6.012-0.197l5.715-5.924h2.475l2.792-6.931l4.204-0.109&#xD;&#xA;        l4.5-2.781l-0.417-2.934l-2.529-2.529v-2.102l3.788-2.08l-2.529-5.048l-0.416-6.712l3.789-3.755l2.945,0.021l1.686,1.271&#xD;&#xA;      l2.945,7.577l1.686,0.011l7.161-12.975v-2.934l-4.632-12.199l2.529-1.664l2.53-5.026l-0.416-4.621l4.631-1.654l1.686-2.934&#xD;&#xA;        l5.902-1.226l1.686-2.508l-2.103-5.048l7.161-1.215l1.27-1.676L281.191,321.536z"/>
                </g>
                <g >
                    <path id="ISO-DO-03"  fill="#2F90F2" stroke="#FFFFFF" stroke-width="0.75" d="M129.528,405.081l6.318,4.227l4.632,1.281l8.421-0.788&#xD;&#xA;      l6.317,3.394l1.27,2.518l3.362-1.653l2.945,0.854l0.427,2.518l8.42,1.719l4.632-3.329l2.113,0.011l2.945-3.329l14.322,1.336&#xD;&#xA;       l15.165-5.365l5.475,1.708l1.259,3.503l0,0l1.259,2.793l7.161,6.756l29.061,10.227l4.632,4.631l-7.588,3.734l-2.102-5.048&#xD;&#xA;     l-2.518-0.853l0,0l-1.686,2.506l2.102,3.79l-5.901-0.46l1.686,2.113l-0.844,4.599l-5.901,1.226l-0.844,4.182l-2.945,0.821&#xD;&#xA;     l-2.102-1.686l-5.486,4.994l-4.632-0.438l-0.416,1.664l4.215,1.708l-0.427,1.664l-13.479,5.376l-3.372,4.172l-0.427,6.689&#xD;&#xA;     l2.102,1.27l-0.843,2.092l0,0l-10.107,0.777l-3.361-3.788l-2.945-10.062l-3.789-2.541l-3.373-4.622l-4.632-0.032l-13.906,9.142&#xD;&#xA;        l-2.103-0.011l-11.366-9.286l-6.745-3.383l-9.68-1.73l-26.531-13.139l-2.113-3.361l-0.832-8.814l6.318-14.629v-7.128l9.274-1.632&#xD;&#xA;      L129.528,405.081z"/>
                </g>
                <g >
                    <path  id="ISO-DO-04" fill="#2F90F2" stroke="#FFFFFF" stroke-width="0.75" d="M247.455,435.927l3.373,7.566l6.317,3.81l1.26,4.194&#xD;&#xA;        l-1.686,2.08l-4.216,0.81l-2.113,9.625l-7.161,2.891l2.946,6.723l3.789-0.394l2.102,4.205l5.059,1.708l4.632-3.745l3.372,2.113&#xD;&#xA;        v2.091l-2.945,2.497l4.631,6.723l0.844,3.778l-2.102,7.523l-2.551,2.048l0,0l-1.96-1.611l-1.304-5.343l-3.733-3.427l-5.891-2.737&#xD;&#xA;      l-2.617,0.756l-0.328-1.304l-6.154-2.803l-3.406,0.964l-0.132,1.708l2.618-1.511l1.051,1.03l-9.614,8.562l-1.632,6.505l6.089,8.968&#xD;&#xA;        l-2.092,2.255l4.522,4.796l1.445,5.201l2.749,3.011l-2.026,2.88l-1.96,8.695l-5.431,9.986l-2.486,0.963l-2.683,3.416l0.131,2.124&#xD;&#xA;      l-5.036,3.494l0.065,4.785l-1.632,0.207l-4.642,4.852l-9.745,16.063l-4.183,5.058l-8.639,6.636l-3.734,6.767l-1.358-1.994l0,0&#xD;&#xA;     l-0.339-2.77l1.259-1.664l-0.843-5.432l-1.588-1.16l-0.274-3.559l-5.573-6.986h-3.066l-1.391,4.654l-3.898,1.16l-4.424-5.508&#xD;&#xA;      l-2.529-1.685l-1.96,0.328l-1.117-3.613l-2.781-2.037h-5.015l-1.675-2.037l0.832-10.764l2.781,1.457l3.066-0.876l4.456-5.824l0,0&#xD;&#xA;      v-7.566l0,0l-3.898-6.406l5.015-0.295l1.391-3.198l-6.406-4.664l-5.07-0.558l0,0l0.7-7.51l2.103-2.913l3.372-0.821l3.373,1.697&#xD;&#xA;        l7.161-0.384l-3.361-11.311l-6.318-12.164v-1.676l6.318-8.333l6.734,5.06l15.165,2.178l10.107-2.869l5.902-7.5l0.843-3.339l0,0&#xD;&#xA;        l0.843-2.092l-2.103-1.27l0.428-6.701l3.372-4.171l13.479-5.366l0.427-1.676l-4.216-1.697l0.427-1.676l4.632,0.449l5.475-4.993&#xD;&#xA;        l2.102,1.686l2.945-0.821l0.843-4.183l5.902-1.227l0.844-4.599l-1.686-2.102l5.901,0.449l-2.102-3.777L247.455,435.927z"/>
                </g>
                <g >
                    <path  id="ISO-DO-05" fill="#2F90F2" stroke="#FFFFFF" stroke-width="0.75" d="M82.466,158.298l5.453,4.226l4.216-0.394l13.479,5.551&#xD;&#xA;      l20.213-0.723l4.216-2.508l5.891,0.449l2.102,6.767l10.107,5.113l2.946,3.821l7.161,2.99l0,0v1.686l-6.318,6.712l-2.529,5.048&#xD;&#xA;     l1.259,15.603l-4.631,4.183l0.405,18.122l-6.319,1.226l-5.891-1.292l0.843,4.216l4.632,3.395l0.843,2.102l0,0l-6.329,7.544&#xD;&#xA;        l-7.15-2.978l-3.373,0.822l-4.631-2.552l-2.114,2.092l-0.843,6.307l-3.789-0.021l-5.475,5.442l0,0l-7.073-0.503l-0.471-1.15&#xD;&#xA;       l-5.541-1.15l-4.259-3.46v-1.927l-3.8-1.829l-0.187-2.507l-1.565,3.963l-1.949-3.755l-2.025,0.679l-1.577-1.348l0.46-2.321&#xD;&#xA;        l-1.752-0.482l0.46-2.99l-2.507-4.434l-3.975-2.496l3.318-1.84l4.62-0.295l1.106-3.669l5.354-3l1.566,0.865l0.832-2.321&#xD;&#xA;       l3.143,3.077h1.577l-0.942-9.067l4.424-9.274l-0.011-4.446l-3.504-6.438l1.259-9.001l-2.672,0.197l-0.668-5.113h-2.397&#xD;&#xA;        l-0.011-4.347l-7.303-8.102l-0.482-12.362L82.466,158.298z"/>
                </g>
                <g >
                    <path id="ISO-DO-06" fill="#2F90F2" stroke="#FFFFFF" stroke-width="0.75" d="M440.453,195.308l2.102,2.54l8.005,3l0.843,2.114&#xD;&#xA;       l2.946-0.405l2.102,1.27l3.373,10.982l-1.27,8.42l1.686,1.27l5.891,13.939l15.581,1.763l1.687,1.281l-0.428,7.577l2.53,2.54&#xD;&#xA;       l10.949,2.168l8.847,3.833l14.311,3.876l8.847,6.362l13.052,1.752l0,0l4.216-5.442l11.792,2.168l3.789-0.821l2.114,2.541&#xD;&#xA;      l7.16,0.044l-0.427,1.675l-1.686-0.011l-2.102,2.519l-1.27,5.037l-1.686-0.011l-0.416,1.686l-2.53-0.854l-0.843,1.675l-2.102,0.405&#xD;&#xA;        v2.529l-3.799,2.496l-2.518-0.011v2.53l2.518,2.956l1.686,5.059l-5.475-0.033l-1.27,1.248l0,0l-7.161-1.719l-5.048,2.08&#xD;&#xA;       l-7.161-0.887l-4.631,2.08l-5.059-1.719v11.354l-1.686,1.259l-8.005-0.47l0,0l2.957-13.436l-7.161-1.73l-8.004-5.091l-2.102-0.011&#xD;&#xA;     l-4.216,2.923l-2.945-2.124l-9.69-2.573l-4.206-3.81l-2.957-0.022l-1.259-2.529l-4.216,2.081l-1.259-1.686l-2.946-0.438&#xD;&#xA;       l-2.529,2.934l-1.27-0.438l0,0v-3.362l0,0l-2.518,0.833l-2.113,3.766v-2.945l-4.632,0.821l0.843-2.946l-1.686-0.427l-4.632,4.182&#xD;&#xA;      l-1.259-1.686l-1.27,2.934l-4.205-1.292l-1.27-2.102l-2.518,0.821l-0.843-2.102l-6.745,0.383l-1.259,0.832l0.832,1.686l0,0&#xD;&#xA;        l-1.676-0.011l-1.686-3.373l-6.318-3.405l-6.318-6.34l-3.361-6.34l0,0l-2.103-8.432l5.475-7.128v-4.205l2.113-4.621l-0.427-2.956&#xD;&#xA;      l3.8-14.717l6.745-5.026l11.377-4.993v-1.259l-3.372-1.281l-0.844-2.114l1.26-2.529l7.588-3.329l0.427-3.361l-2.113-2.124l0,0&#xD;&#xA;     L440.453,195.308z"/>
                </g>
                <g >
                    <path id="ISO-DO-08" fill="#2F90F2" stroke="#FFFFFF" stroke-width="0.75" d="M693.172,307.837l1.959,0.625l4.38,7.358l3.8,0.208&#xD;&#xA;     l0.853,2.89l7.654,3.647l12.176-0.964l2.092-2.957l-2.683-3.646l2.485-1.095l4.183,1.379l3.865-4.336l3.602,1.303l2.88-1.379&#xD;&#xA;      l6.088,1.302l12.307,8.596l6.668-0.898l5.234,3.581l4.961,0.416l0,0v4.238l-2.102-0.854l-0.428,3.777l-2.102-0.854l-1.258,2.518&#xD;&#xA;       l-3.373,0.405l-0.426,6.723l-4.632,2.913l7.993,18.111l-0.427,10.917l-10.534,8.76l-3.789,7.117l-5.902-0.876l-6.733,1.227&#xD;&#xA;        l-0.427,6.712l-1.687,1.665l2.102,5.047l0,0l-8.004-1.303l-7.588,15.899l-3.789,5.015l-7.161,5.41l-0.844,2.934l-4.631,4.587&#xD;&#xA;      l-5.059,1.654l0,0l1.27-10.052l2.102-0.821l-0.844-1.675l-6.733-0.044l-5.059,2.069l-6.318-3.383l-2.102-5.048l-6.735-4.654&#xD;&#xA;       l-3.787-1.281l-5.06,1.226l-1.259-2.945l-3.362-1.281l0,0l0.428-4.194l4.215-2.496l4.227-25.568l-2.102-4.632l-7.15-8.858&#xD;&#xA;     l-8.004-3.406l-1.26-4.205l-3.788-1.697l-2.946-7.161l-2.529-2.53v-2.518l2.113-10.49l2.102-0.405l16.841,9.756l13.48,1.752&#xD;&#xA;       l1.27-2.091l-0.417-2.946l-8.847-7.61l-3.373-5.902l-0.415-4.62l3.372-0.821l2.518-2.574l0,0l2.212,2.399l3.011-0.482l1.511-0.481&#xD;&#xA;     l6.931-0.416l1.249,1.445l-0.593,1.785l1.961,0.69l1.762-2.682l-0.263-5.99l-1.511-1.993l-2.813,0.69L693.172,307.837z"/>
                </g>
                <g >
                    <path id="ISO-DO-09" fill="#2F90F2" stroke="#FFFFFF" stroke-width="0.75" d="M403.477,141.173l3.536,5.322l10.599,8.639l10.085,4.347&#xD;&#xA;        l9.745,0.285l13.282,4.828l5.891,0.142l12.504-2.573l0,0l-0.437,8.421l-2.114,4.631l-15.581,7.928l-8.004-1.314l-1.259,0.833&#xD;&#xA;      l0.832,6.34l-2.102,6.307l0,0l-5.059-0.449l0,0l-5.891-6.778v-5.912l-4.215-2.125l-7.577,1.643l-2.103,2.934l-2.529,0.833&#xD;&#xA;     l-3.799,9.679l-2.102,0.832l-3.789-2.552l-1.27-5.913l-4.632-0.865l-5.048-4.248l-5.475,12.614l0.416,5.913l-2.114,3.361v3.372&#xD;&#xA;        l3.373,5.07v2.957l-2.956,6.296l-4.643,17.673l0,0l-2.518,3.767l-5.486-0.022l-0.832-8.847l-3.789-7.183l-4.215,4.61l-3.789,0.394&#xD;&#xA;     l-11.377-1.325l-2.529-3.811l0,0l2.54-3.777l4.632,1.292l-2.946-10.544l2.946-6.734l-0.416-6.318l8.847-5.858v-5.059l0,0&#xD;&#xA;      l2.529-2.091l0.843-9.701l3.799-4.621l-1.27-5.486l1.686-2.945l-0.832-3.8l2.518-0.833l-0.416-2.113l2.102-2.092l3.372,1.697&#xD;&#xA;      l1.27-1.259l2.945,0.022l0.843,1.27l0.416-2.957l3.8,0.449l1.686-1.259l2.518,3.394l1.686,0.011l1.27-2.102l1.675,1.697&#xD;&#xA;       l0.427-2.113l1.686,2.124l1.675-0.417l-1.675-2.54l5.891-1.654l-1.675-5.924l2.529-5.814l0,0L403.477,141.173L403.477,141.173z"/>
                </g>
                <g >
                    <path id="ISO-DO-30" fill="#2F90F2" stroke="#FFFFFF" stroke-width="0.75" d="M676.692,314.451l-2.518,2.573l-3.373,0.822l0.416,4.621&#xD;&#xA;        l3.373,5.902l8.847,7.61l0.416,2.945l-1.258,2.092l-13.48-1.752l-16.841-9.756l-2.102,0.405l-2.114,10.49v2.518l2.53,2.529&#xD;&#xA;        l2.945,7.161l3.79,1.697l1.259,4.204l8.005,3.405l7.161,8.859l2.102,4.631l-4.227,25.579l-4.215,2.496l-0.427,4.194l0,0&#xD;&#xA;       l-4.632,4.172l-5.475,0.394l-2.102,6.701l0.843,5.869l-2.529-0.011l-0.427,2.518l-7.577,5.826l-1.687,3.766l-4.631-7.565&#xD;&#xA;      l-3.362-10.918l-3.789-2.54l-2.102-7.139l-3.789-6.318l-2.529-1.27l-0.417-1.675l2.958-3.756l-1.688-2.53v-6.712l-2.529-7.15&#xD;&#xA;      l-3.789-1.697l-0.843-2.102l1.685-7.972l0,0l1.686-1.248l0.428-2.934l1.686-0.405l3.799-5.015l4.631-1.237l1.686-4.194l3.373-0.405&#xD;&#xA;        l1.686-5.453l-4.215-1.282l-6.734,1.227l-10.534-5.102l-17.683-9.768l-2.946-3.372l-5.891-2.551l-4.205-3.81l-6.734-2.135&#xD;&#xA;     l-2.102-3.373l0,0l5.541-17.99l0,0l2.682,0.548l8.968-3.165l3.866,2.409l11.125-1.927l1.959,3.099l6.154-0.963l3.011,2.748&#xD;&#xA;        l2.749-1.379l0.788-5.157l-9.231,0.689l6.68-1.862l8.508-0.416l7.193,4.61l-0.46,4.194l1.434,2.344l5.957,1.445l2.683,2.201&#xD;&#xA;       l7.523-1.302l3.273,3.438l3.865,0.964l4.315,3.712l7.325-2.891h1.763L676.692,314.451z"/>
                </g>
                <g >
                    <path id="ISO-DO-10" fill="#2F90F2" stroke="#FFFFFF" stroke-width="0.75" d="M67.761,396.343l9.537,0.055l20.641,4.303l13.479-0.34&#xD;&#xA;      l4.632,2.125l13.479,2.595l0,0l0,0l0,0l0,0l0,0l-7.161,2.891l-9.274,1.632v7.128l-6.318,14.629l0.832,8.814l2.113,3.361&#xD;&#xA;       l26.531,13.139l9.68,1.73l6.745,3.383l11.366,9.286l2.103,0.011l13.906-9.142l4.632,0.032l3.373,4.622l3.789,2.541l2.945,10.062&#xD;&#xA;       l3.361,3.788l10.107-0.777l0,0l-0.844,3.341l-5.891,7.5l-10.118,2.879l-15.165-2.179l-6.734-5.059l-6.317,8.333v1.676l6.317,12.164&#xD;&#xA;        l3.362,11.322l-7.161,0.372l-3.373-1.685l-3.361,0.81l-2.113,2.924l-0.7,7.5l0,0l-17.202-15.461l-9.187-0.865l-10.391-4.773&#xD;&#xA;       l-9.942-1.642l-11.541-8.935l-2.946-3.79l-8.891-3.022l0,0l7.424-12.483l-23.761-9.448l-2.037-3.45l-6.197-1.336l-3.34-7.565&#xD;&#xA;      l-14.432-6.888l-2.223-6.899l7.939-1.455l-0.186-3.164L31.66,422.24l-2.88-6.427h-1.938l-2.507-3.45l-3.329,0.482l-1.938-1.818&#xD;&#xA;        l6.186-2.803l3.778-5.091l9.066,5.266l3.504-3.471h2.037l4.905,2.967l0.832,2.3l1.577-0.186l1.095-2.31l3.975,0.471l1.85,1.632&#xD;&#xA;        l3.975-1.161l2.868,0.668l2.026-1.16l-0.744-6.439L67.761,396.343z"/>
                </g>
                <g >
                    <path id="ISO-DO-11" fill="#2F90F2" stroke="#FFFFFF" stroke-width="0.75" d="M781.382,516.636l14.268,6.635l4.577,0.142l-0.395-1.302&#xD;&#xA;        l3.669,0.613l1.248,2.19l4.248,1.577l11.848-0.614l5.956,5.683l1.117,5.749l-1.96,1.237l-2.485-2.125l-13.086-2.867l-10.468,3.974&#xD;&#xA;     l-15.898-5.541l0.132-2.19l-6.735-6.844l0.394-3.975L781.382,516.636z M775.754,323.868l10.664,4.675l11.125,7.632l11.453,11.279&#xD;&#xA;      l6.877,9.482l3.143,1.72l1.116,2.332l3.734,2.201l9.165,9.624l3.077,2.135l1.895-1.719l1.643,0.964l0.591,1.928l7.653,6.8&#xD;&#xA;     l4.774,1.511l6.547,8.376l4.512,2.398l5.036,6.11l2.222,1.446l1.961-1.238l8.376,5.628l4.38,5.968l-0.854,1.445l1.446,0.897&#xD;&#xA;       l-0.393,3.022l-1.502,0.142l1.315,1.851l-12.888,22.294l-2.88,0.755l-2.158,7.819l-5.036,3.295l-5.036,5.901l-1.5,15.976&#xD;&#xA;      l-3.406,4.182l-5.825,1.851l-16.095-5.136l-8.64-5.694l-3.985,1.916l-0.985,3.767l3.011,3.767l0.327,2.54l-3.339,7.403&#xD;&#xA;        l-2.749,2.813l-3.406,8.695l-0.197,11.366l-4.248-1.916l-6.8,1.916l-6.996-0.953l-4.446,2.529l1.894-3.35l-3.405-1.435&#xD;&#xA;        l-0.986,1.238l1.544,2.464l-2.913,1.303l0.854-2.059l-0.92-5.41l-13.982-25.513l-5.301-3.908l-1.696-5.487l-13.862-6.504l0,0&#xD;&#xA;      l2.376-4.259l0.427-8.793l2.529-1.248l-0.416-1.676l7.589-13.368l-0.832-9.647l-6.319-4.227l-4.631-7.577l-2.103-0.854&#xD;&#xA;        l-0.416-5.869l-2.945-1.697v-2.519l-2.53-1.686l-0.416-2.103l0,0l-2.102-5.047l1.686-1.664l0.427-6.713l6.734-1.215l5.901,0.876&#xD;&#xA;       l3.8-7.117l10.533-8.76l0.428-10.917l-7.994-18.1l4.632-2.913l0.428-6.723l3.373-0.405l1.259-2.519l2.102,0.854l0.427-3.777&#xD;&#xA;       l2.102,0.854v-4.238l0,0h0.045L775.754,323.868L775.754,323.868z"/>
                </g>
                <g >
                    <path id="ISO-DO-07" fill="#2F90F2" stroke="#FFFFFF" stroke-width="0.75" d="M140.543,244.592l9.68,3.011l2.945,4.227l0.428,5.048&#xD;&#xA;       l8.836,6.789l2.53,0.011l13.479,7.654l0,0l-1.686,1.676l-1.27,11.354l0.843,2.945l-1.27,1.676l-2.945,1.664l-5.059-0.021&#xD;&#xA;      l-3.372,2.923l-1.676-0.01l-0.427-1.686l-2.945-0.011l-4.204-4.237l-8.004-1.304l-2.529,0.821l-4.216,6.296l0.417,5.048&#xD;&#xA;       l-6.318,12.997l-0.427,5.464l-3.373,1.238l-10.106-1.742l-11.377,12.965l0.843,2.113l1.686,0.427l-0.427,4.194l-3.789,6.285&#xD;&#xA;       l-0.427,5.036l4.215-2.08l-0.427,8.825l1.259,4.62l-3.789,5.859l3.373,2.124l1.676,3.789l5.059,1.697l3.373,2.967l0.416,2.091&#xD;&#xA;     l-2.946,5.026l3.778,6.318l8.847,2.146l1.686,5.88l-3.373,8.376l0,0l-13.479-2.595l-4.632-2.125l-13.479,0.34l-20.641-4.303&#xD;&#xA;       l-9.537-0.055l0,0l1.183-2.321l2.858-0.011l0.46-3.46l10.807-4.15l3.569-20.289l-0.767-17.508l-2.869-0.767l-0.47-3.165&#xD;&#xA;       l-6.844-3.931l-3.164-11.738l-2.212-0.963l-0.832,1.358l-7.774-3.844l-1.38,1.358l-0.832-1.829l-4.248,3.953l-1.577-2.114&#xD;&#xA;     l0.011,3.942l-3.329-0.471l-1.106,1.829l-1.303-4.325l2.409,0.383l-0.198-3.471l2.223-0.865l-0.186-1.642l2.858,0.963l0.646-3.755&#xD;&#xA;     l1.751,0.471l2.672-3.657l1.302,2.978l5.168-1.161l1.763-1.642l0.186,2.113l2.497,0.668l-0.744-3.46l3.602-1.456l-1.763-1.15&#xD;&#xA;      l2.858-3.471l2.223,1.149l-0.657-1.828l3.329-3.186l2.212,1.161l0.646-1.939l5.081-2.508l-1.106-0.963l1.106-1.828l1.565,1.149&#xD;&#xA;        l1.939-1.828l-2.584-0.964l0.175-1.544l3.329-0.777l-2.223-2.978l0.46-1.161l1.753-1.15l3.142,1.632l1.106-1.642l-0.733-2.026&#xD;&#xA;     l4.434,0.854l2.212-1.346l2.026-4.15l-2.037-1.435l3.329-1.358l-1.763-1.642l1.117-0.964l-0.843-2.694l3.055-0.296l-3.329-1.828&#xD;&#xA;       l4.424-1.161l0.471-1.161l-2.869-1.632l0.175-2.31l3.788-1.161l-3.099-4.982l0,0l5.475-5.442l3.789,0.021l0.843-6.307l2.114-2.092&#xD;&#xA;     l4.631,2.552l3.373-0.822l7.15,2.978L140.543,244.592z"/>
                </g>
                <g >
                    <path id="ISO-DO-12" fill="#2F90F2" stroke="#FFFFFF" stroke-width="0.75" d="M723.994,472.454l3.471,4.041l0.723,5.485l-7.522-3.493&#xD;&#xA;     l1.895-5.825L723.994,472.454z M704.876,435.565l5.059-1.642l4.631-4.588l0.844-2.934l7.161-5.41l3.789-5.014l7.588-15.899&#xD;&#xA;        l8.004,1.303l0,0l0.417,2.103l2.529,1.698v2.518l2.946,1.697l0.416,5.869l2.113,0.854l4.631,7.577l6.318,4.226l0.844,9.647&#xD;&#xA;        l-7.589,13.369l0.416,1.676l-2.529,1.248l-0.427,8.793l-2.376,4.259l0,0l-9.177-2.267l-1.434,0.886l-2.617-2.123l-3.406,1.435&#xD;&#xA;     l-1.369,2.058l-24.681,1.916l0,0l-2.102-10.631l-6.735-9.668l1.687-5.443l3.789-3.755L704.876,435.565z"/>
                </g>
                <g >
                    <path id="ISO-DO-13" fill="#2F90F2" stroke="#FFFFFF" stroke-width="0.75" d="M346.506,227.226l2.529,3.811l11.377,1.325l3.789-0.394&#xD;&#xA;     l4.215-4.61l3.789,7.183l0.832,8.847l5.486,0.022l2.518-3.767l0,0l2.102,8.004l3.373,2.967l3.789,9.285l2.945,3.81l12.22-0.777l0,0&#xD;&#xA;        l3.361,6.34l6.318,6.34l6.318,3.405l1.686,3.373l1.676,0.011l0,0l1.27,0.427l-0.427,1.259l-2.945-0.854l-1.259,3.778l-2.529,1.248&#xD;&#xA;     l-8.004-0.471l-3.789,5.026l-5.059,1.653l-3.373,6.296l0,0v-5.475l-9.679-4.259l-3.373,2.091l-0.427,3.778l-4.216,3.339&#xD;&#xA;       l-3.361-1.697l-6.329,0.799l-5.048,4.599l3.789,15.154l-0.011,6.306l-6.317,2.913l-0.844,2.934l-5.901,6.263l-6.734,3.745&#xD;&#xA;     l-2.956,6.285l0.427,2.518l8.42,7.194l2.518,6.307l6.745,7.599l0,0l0,0l0,0l-1.27,2.935l1.259,5.88l-4.631,2.497l-1.686,2.923&#xD;&#xA;     l0.416,3.778l-4.632-0.022l-4.631,3.329v5.037l-6.319,0.799l-5.475-1.708l-12.219,2.025l0,0l2.507-2.836l0.865-5.409v-7.194&#xD;&#xA;       l-1.434-4.359l-5.289-4.5l-6.329-1.774l-4.631,0.394l-6.34-9.275l-6.997-4.806l-1.391-2.3l0.416-3.438l-3.789-4.632l-0.416-10.512&#xD;&#xA;     l2.945-1.237v-2.102l-4.205-4.227l-0.427-3.789l1.697-3.35l-5.486-5.497l-6.734,3.745l0,0l-3.372-7.578l-2.519-1.697l0,0&#xD;&#xA;      l1.686-3.778l-2.102-5.901l0.416-2.518l5.902,0.448l4.632-5.431l3.789,0.438l3.373-2.508l3.788-0.821l2.957-6.285l8.42-1.215&#xD;&#xA;      l9.263-5.42l0.854-5.464l3.373-5.452l2.519,3.799l4.632,1.708l2.113-0.821l1.686-2.103l-1.686-1.27l0.416-2.945l-1.675-1.27&#xD;&#xA;       l1.686-2.934l-0.843-2.53l1.26-1.675l-1.26-2.54l1.26-2.092l-16.424-7.249l-0.844-1.27l3.373,0.022v-1.271l-2.529-1.281&#xD;&#xA;       l-0.832-3.372l3.361,0.022l0.843-1.675l3.8-1.665l5.891,0.449l1.686-4.194l7.588-2.069l4.632-2.924L346.506,227.226z"/>
                </g>
                <g >
                    <path id="ISO-DO-14" fill="#2F90F2" stroke="#FFFFFF" stroke-width="0.75" d="M493.724,148.98l10.008,2.081l3.92,5.519l2.102-0.614&#xD;&#xA;       l1.567,1.862l3.404,0.69l3.866,9.942l-4.982,14.574l3.734,6.558l4.773,2.825l-1.828,13.381l0.854,3.526l6.143,11.65v3.515&#xD;&#xA;     l7.335,7.314l4.183,7.577l5.65,5.376l0,0l0.437,3.384l3.789,3.394l-5.475-1.292l2.102,2.54l-0.416,1.259l-3.372-2.124l-1.687,0.405&#xD;&#xA;        l2.946,7.6l-1.686,2.934l-2.945-0.854l-0.428,3.361l3.373,2.125l0.416,2.102l0,0l-13.052-1.752l-8.847-6.362l-14.311-3.876&#xD;&#xA;        l-8.847-3.833l-10.949-2.168l-2.53-2.54l0.428-7.577l-1.687-1.281l-15.581-1.763L460.24,224.5l-1.686-1.27l1.27-8.42l-3.373-10.982&#xD;&#xA;        l-2.102-1.27l-2.946,0.405l-0.843-2.114l-8.005-3l-2.102-2.54l0,0l2.102-6.307l-0.832-6.34l1.259-0.833l8.004,1.314l15.581-7.928&#xD;&#xA;      l2.114-4.631l0.437-8.421l0,0l8.498-10.555l8.376-2.004l6.219,0.69L493.724,148.98z"/>
                </g>
                <g >
                    <path id="ISO-DO-28" fill="#2F90F2" stroke="#FFFFFF" stroke-width="0.75" d="M365.416,371.159l-6.745-7.599l-2.518-6.307l-8.42-7.194&#xD;&#xA;        l-0.427-2.518l2.956-6.285l6.734-3.745l5.901-6.263l0.844-2.934l6.317-2.913l0.011-6.306l-3.789-15.154l5.048-4.599l6.329-0.799&#xD;&#xA;       l3.361,1.697l4.216-3.339l0.427-3.778l3.373-2.091l9.679,4.259v5.475l0,0l0.844,3.789l4.631,5.069l-0.427,10.085l8.42,2.99&#xD;&#xA;        l0.843,5.047l20.99,17.519l3.307,4.939l1.073,4.424l0,0l-5.585,3.897l-0.843,9.231l0,0l-7.172,3.317l-5.048,4.589l1.26,6.723&#xD;&#xA;      l-4.632,6.274l-3.8,2.07l-3.898-2.803l0,0l-11.684-6.931l-13.479,2.858l-4.204-4.215l-5.475-2.135l-3.373-4.632L365.416,371.159z"/>
                </g>
                <g >
                    <path id="ISO-DO-15" fill="#2F90F2" stroke="#FFFFFF" stroke-width="0.75" d="M128.904,92.108l8.705,1.916l2.814-1.106l25.984,12.8&#xD;&#xA;       l14.135,2.628l4.315-0.482l6.416,4.007l5.365,0.974l6.592-1.861l0,0l1.818,1.96l-0.843,3.81l1.686,7.61l18.132,7.719l0,0&#xD;&#xA;      l-5.496,17.673l2.102,6.767v6.767l-1.697-1.281l-1.249,1.281l-3.799-0.887l-0.843,2.529l2.945,6.745l0.416,5.508l-0.843,3.788&#xD;&#xA;     l-3.373,4.621l0,0l-6.734-2.573l-2.102,4.204l-2.529,0.405l-3.373-2.967l-5.048-0.011l-5.059-5.113l-2.945,2.935l-2.53-0.438&#xD;&#xA;      l-7.577,5.015l-5.891-1.304l-2.102,2.102v-2.113l-5.475-4.248l0.427-2.102l-2.103,0.405l0.438,3.351l-1.281,0.438l0,0l-7.161-2.99&#xD;&#xA;     l-2.946-3.81l-10.106-5.113l-2.102-6.767l-5.891-0.46l-4.216,2.508l-20.213,0.734L92.19,162.12l-4.216,0.394l-5.452-4.227l0,0&#xD;&#xA;     l0.164-4.861l-5.048-3.669l0.646-2.321l-1.763-1.642l0.197-1.38l5.979-1.314l1.839-5.529l-1.325-3.11l-1.304,0.832l-3.799-7.401&#xD;&#xA;       l1.379-0.69l-0.591-3.592l-1.566-0.065l-1.763,3.251l-2.496,1.029l0.274,2.496l-1.391-0.7l0.46-4.697l7.271-6.428l0.525-1.862&#xD;&#xA;     l6.285-1.171l5.956-3.044l0.329-2.277l3.405-0.832l3.8-3.176l1.698-3.964l-1.698-6l3.471-0.558l1.829,3.537l1.96,0.964l2.803-1.938&#xD;&#xA;        l0.602-3.187l3.537,0.065l4.566-2.43l4.336,0.974L128.904,92.108z"/>
                </g>
                <g >
                    <path id="ISO-DO-29" fill="#2F90F2" stroke="#FFFFFF" stroke-width="0.75" d="M548.658,296.975l8.004,4.676l7.578,8.453l10.106,3.843&#xD;&#xA;     l2.113,2.529l0,0l2.102,3.373l6.734,2.146l4.215,3.8l5.891,2.562l2.946,3.373l17.683,9.767l10.535,5.091l6.744-1.215l4.206,1.281&#xD;&#xA;      l-1.688,5.453l-3.372,0.405l-1.685,4.183l-4.632,1.237l-3.789,5.015l-1.686,0.416l-0.427,2.935l-1.686,1.248l0,0l-0.417-1.686&#xD;&#xA;     l-3.371-1.27l-5.475,6.263l-8.005,12.121l-4.227,13.829l-5.879,8.902l0,0l-9.921-3.569h-4.226l-1.698,3.559l-7.893,2.661&#xD;&#xA;      l-4.555-0.361l-4.994,1.587l-2.529-0.854l-5.059,3.745l-2.102,6.701l-7.588,5.409l-1.26-3.361l0.416-3.767l-2.102-4.632&#xD;&#xA;       l-4.216-0.022l-0.832-1.259l0.417-7.128l-2.519-0.854l-2.113,1.248l-6.307-12.624l-5.903,0.394l-6.318,2.891l-9.69-3.822&#xD;&#xA;      l0.415,4.61l-1.675,2.092l-2.957,0.405l-2.518,3.339l-7.588-0.887l-4.216,2.497l-5.475-5.059l-10.949-0.066l-8.836-14.311&#xD;&#xA;     l-2.53-0.438l-2.102,1.248l0,0l-5.891-6.328l-5.486-0.876l-8.41-10.117l0,0l0.843-9.231l5.585-3.897l0,0l5.365-3.603l16.009,0.93&#xD;&#xA;      l3.373-5.857l4.631,0.021l4.631-2.913l1.687,0.011l1.685,2.529l4.632,0.449l3.788-5.858l9.264,5.923l4.215,0.449l6.318-8.792&#xD;&#xA;      l3.799-9.22l0.428-6.296l-1.687-1.27l-0.843-3.789l4.215-8.387l0,0l8.005,0.47l1.686-1.259v-11.354l5.059,1.719l4.631-2.08&#xD;&#xA;        l7.161,0.887l5.048-2.08L548.658,296.975z"/>
                </g>
                <g >
                    <path id="ISO-DO-16" fill="#2F90F2" stroke="#FFFFFF" stroke-width="0.75" d="M104.3,693.264l1.5,2.179l-2.617-0.547l-0.263-1.227&#xD;&#xA;        L104.3,693.264z M132.9,659.364l5.628,2.803l3.208,5.727h3.274l-1.697,3.143l-5.102,4.369l-11.125,3l-1.96-3.131l3.733-10.162&#xD;&#xA;     l2.354-1.434L132.9,659.364z M86.057,493.62l8.891,3.022l2.946,3.79l11.541,8.946l9.942,1.642l10.391,4.773l9.187,0.877&#xD;&#xA;       l17.202,15.46l0,0l5.07,0.558l6.405,4.665l-1.39,3.208l-5.015,0.296l3.897,6.405l0,0v7.566l0,0l-4.456,5.826l-3.066,0.876&#xD;&#xA;     l-2.781-1.456l-0.832,10.764l1.676,2.036h5.015l2.781,2.037l1.116,3.613l1.96-0.328l2.53,1.686l4.424,5.508l3.898-1.161&#xD;&#xA;       l1.391-4.653h3.066l5.573,6.986l0.284,3.559l1.588,1.161l0.843,5.431l-1.259,1.664l0.339,2.771l0,0l-1.39,1.577l0.065,5.266&#xD;&#xA;       l-2.288,1.851l-1.183-1.161l-2.092,1.03l-4.248,5.737l-4.642,9.012l-5.76,21.231l-3.536,3.483l-4.194,10.511h-1.698l-2.223,3.416&#xD;&#xA;      l-4.577-4.917l-0.657-3.547l-6.547-6.078l-5.891-15.701l-8.442-7.577l-5.497-2.113l-10.862-0.482l-14.07,2.869l-6.285-3.077&#xD;&#xA;       l6.745-3.898l1.698-6.493l4.183,0.481l1.84-6.493l-4.183-6.493l-2.025-6.22l-4.774-4.095l3.339-1.576l1.5-4.369l-4.117-10.939&#xD;&#xA;     l-6.417-5.749l-4.905-2.529l-4.062-4.653l-3.844-1.227l1.051-3.043l2.584-1.828l0.46-4.118l2.026-3.263l-1.391-2.486l1.106-1.631&#xD;&#xA;      l-2.223-0.854l-1.292-3.066l1.752-4.797l-1.752-1.62l-4.26-5.935l0.734-1.631l-2.584,0.679l-2.595-2.967l1.38-3.93l2.211-1.149&#xD;&#xA;        l0.635-5.464l2.672-1.632v-2.967L86.057,493.62z"/>
                </g>
                <g >
                    <path id="ISO-DO-17" fill="#2F90F2" stroke="#FFFFFF" stroke-width="0.75" d="M407.145,441.434l5.387,0.209l3.23,1.697l0.591,1.927&#xD;&#xA;       l3.373,1.698v1.675l2.945,0.854l0.843,5.037l5.475-0.384v4.61l1.686,0.428l-0.843,1.674l1.686,0.011l1.686-2.923v2.934l2.53-0.821&#xD;&#xA;     l3.373,1.698l-2.103,2.081l-1.259-2.103v4.61l-4.632,3.329l-5.475-0.448l-2.102,3.755l2.945-0.821l1.259,6.285l2.102-1.665&#xD;&#xA;        l3.373,0.854l1.259,7.544l6.318,5.475l2.103,5.87l5.058,2.124l-1.27,7.949l2.102,1.719l0,0l-2.278,1.095l-4.643-1.85l-6.614,3.35&#xD;&#xA;      l-9.558-3.898l-12.888,2.945l-14.201-2.802l-26.827,10.687l-4.971-3.285l-8.77-0.208l1.565-3.426l1.894-0.756v1.434l-0.263-1.028&#xD;&#xA;      l-1.435,0.547l-0.788,2.255l1.314,0.613l1.051-2.123l2.683,1.85l0.985-1.302l2.683,0.887l5.037-2.125l-3.8-2.255h-3.405&#xD;&#xA;       l-4.051-5.136l-5.891-2.125l-1.96-2.802l0,0l1.215-1.15l9.264-0.361l9.69-2.88l2.529-5.848l-1.259-5.868l0.427-6.275l4.643-6.252&#xD;&#xA;      v-3.35l-1.84-3.099l0,0l0.613-4.894l1.609-2.256l4.577-1.128l7.807-4.51l7.534-1.412L407.145,441.434z"/>
                </g>
                <g >
                    <path id="ISO-DO-18" fill="#2F90F2" stroke="#FFFFFF" stroke-width="0.75" d="M252.514,87.104l5.431,0.417l10.599,6.088l3.011-2.562&#xD;&#xA;      l6.482,3.186l4.38-0.35l2.683-0.066l2.814,0.898l3.274-1.588l2.289,0.624l0.853,4.007l2.618,1.796l3.011-0.066l7.851,10.096&#xD;&#xA;       l-1.5,2.211l0.646,1.041l2.365-1.795l6.012-0.417l3.931,2.902l0.065,1.391l4.315,1.445l1.971,2.081l-0.854,0.755l0.854,1.172&#xD;&#xA;      l2.42-1.314l7.588,4.84l2.223,2.912h2.683l1.828,2.486l2.759-1.73l7.588,3.734l7.194-2.421l2.354,2.486h5.826l1.183-0.339&#xD;&#xA;     l-0.591-1.873l2.091-4.073l6.351-1.314l8.442,0.624l8.376,7.6l2.945,0.065l6.537,9.121l0,0l-2.529,5.814l1.675,5.924l-5.891,1.654&#xD;&#xA;     l1.675,2.54l-1.675,0.417l-1.686-2.124l-0.427,2.113l-1.675-1.697l-1.27,2.102l-1.686-0.011l-2.518-3.394l-1.686,1.259l-3.8-0.449&#xD;&#xA;     l-0.416,2.957l-0.843-1.27l-2.945-0.022l-1.27,1.259l-3.372-1.697l-2.102,2.092l0.416,2.113l-2.518,0.833l0.832,3.8l-1.686,2.945&#xD;&#xA;      l1.27,5.486l-3.799,4.621l-0.843,9.701l-2.529,2.091l0,0l-11.366-5.124l-9.263-1.741l-1.686-4.643l2.529-8.847l-0.843-3.799&#xD;&#xA;       l-17.268-8.968l-0.843,2.114l2.102,8.869l-0.843,2.529l-1.686,2.102l-6.318,2.496l-2.102-0.865l-1.686-3.799l-3.789-0.449&#xD;&#xA;     l-9.263-8.486l-1.686,1.676l-10.523-3.854l0,0l-9.274-0.482l-3.788-2.551l-1.686,0.832l-3.788-3.821l-0.416-2.103l-6.745-3&#xD;&#xA;        l-5.048-5.092l-8.847,1.216l-5.048-2.135l-1.686-5.081l-10.95-2.168l-6.296-2.978l0,0l-18.133-7.72l-1.686-7.621l0.854-3.81&#xD;&#xA;       l-1.818-1.949l0,0l2.114-1.248l1.116-4.424l-0.788-2.705l5.168,3.81l3.011,0.679l1.971-2.551l8.76,1.456l1.906-1.795l7.851-2.354&#xD;&#xA;      l2.42-2.354l-0.394-4.215l4.051-2.705l0.658-1.938L252.514,87.104z"/>
                </g>
                <g >
                    <path id="ISO-DO-19" fill="#2F90F2" stroke="#FFFFFF" stroke-width="0.75" d="M381.041,239.643l4.643-17.673l2.956-6.296v-2.957&#xD;&#xA;      l-3.373-5.07v-3.372l2.114-3.361l-0.416-5.913l5.475-12.614l5.048,4.248l4.632,0.865l1.27,5.913l3.789,2.552l2.102-0.832&#xD;&#xA;      l3.799-9.679l2.529-0.833l2.103-2.934l7.577-1.643l4.215,2.125v5.912l5.891,6.778l0,0l2.113,2.124l-0.427,3.361l-7.588,3.329&#xD;&#xA;      l-1.26,2.529l0.844,2.114l3.372,1.281v1.259l-11.377,4.993l-6.745,5.026l-3.8,14.717l0.427,2.956l-2.113,4.621v4.205l-5.475,7.128&#xD;&#xA;     l2.103,8.432l0,0l-12.22,0.777l-2.945-3.81l-3.789-9.285l-3.373-2.967L381.041,239.643z"/>
                </g>
                <g  >
                    <path id="ISO-DO-20" fill="#2F90F2" stroke="#FFFFFF" stroke-width="0.75" d="M671.578,228.496l1.895,1.522l2.288-0.755l0.525,1.522&#xD;&#xA;      l-8.508,12.406l-0.395,3.373l5.299,1.314l2.815-0.34l2.683-2.682l4.315,1.106l4.247-2.825l4.578,1.237l-0.198,3.657l-2.682,5.026&#xD;&#xA;      l-10.862,7.927l-2.881,12.329l-2.617,0.964l-10.927-1.171l-3.657-2.683l-1.117,1.172l-2.42-1.719l-1.249,0.963l-4.247-2.343&#xD;&#xA;       l-2.092,2.474l-14.465-0.548l-1.116,2.76l-1.96-2.135l-3.931,0.624l-2.355-2.475l-6.996-1.861l-5.826,0.208l-1.762-1.588&#xD;&#xA;      l-2.026,1.314l-3.011-1.446l-6.865,0.482l-15.373-3.373l-1.698,1.172l0.198,10.128l-3.274,11.015l2.026,7.851l-1.238,1.38&#xD;&#xA;     l1.895,3.438l3.405,0.624l0,0l-5.54,17.99l0,0l-2.102-2.53l-10.106-3.843l-7.577-8.453l-8.005-4.676l0,0l1.26-1.259l5.475,0.033&#xD;&#xA;       l-1.687-5.059l-2.529-2.956v-2.53l2.529,0.011l3.79-2.508v-2.529l2.102-0.405l0.843-1.675l2.53,0.854l0.427-1.675l1.686,0.011&#xD;&#xA;     l1.27-5.048l2.113-2.508l1.686,0.011l0.427-1.686l-7.16-0.044l-2.102-2.54l-3.79,0.821l-11.792-2.168l-4.215,5.442l0,0&#xD;&#xA;        l-0.417-2.102l-3.373-2.124l0.428-3.362l2.945,0.854l1.687-2.934l-2.946-7.6l1.686-0.416l3.373,2.124l0.427-1.259l-2.102-2.541&#xD;&#xA;        l5.475,1.292l-3.789-3.395l-0.438-3.383l0,0l7.435,4.139l7.523,1.445l9.165-2.135l3.931-2.409l15.308-1.03l3.208-1.796l0.131-2.551&#xD;&#xA;        l2.683,0.34v-1.654l1.828,0.482l2.223-2.07l1.894,1.314l2.42-1.237l9.614,1.106l5.891-1.237l2.945,1.719l2.552-1.314l3.077,3.033&#xD;&#xA;      l3.34-2.201l4.905,3.516l2.749-0.755l1.96,2.004l4.062,0.065l1.369,2.891l4.391,2.004l1.96-6l7.719-5.715l5.234-0.898l-0.394-1.446&#xD;&#xA;        l1.762-1.511l2.223,1.106l2.813-5.376L671.578,228.496z"/>
                </g>
                <g >
                    <path id="ISO-DO-21" fill="#2F90F2" stroke="#FFFFFF" stroke-width="0.75" d="M431.967,367.754l8.41,10.117l5.486,0.876l5.891,6.328&#xD;&#xA;      l0,0l-2.114,2.508v2.518l3.788,5.475l0.844,8.388l4.204,6.318l-0.416,1.675l-2.102-1.686l-1.686,0.405l-0.854,6.713l2.113,1.686&#xD;&#xA;       l2.946,7.982l1.686,0.427l1.676,8.815l0.844,1.675l2.529,0.439l3.372-0.405v-1.676l1.259-0.404l4.216,4.631l2.102,5.464&#xD;&#xA;       l-4.216,1.643l0.428,1.258l3.362,0.023l-0.417,4.61l2.946-3.339l2.102,0.011l1.686,2.529l2.102,0.428l3.373-3.745l-0.416,4.598&#xD;&#xA;        l1.259-0.404l0.417,2.508l1.685,1.269l-1.15,3.734l0,0l-1.883,1.786l-1.051-0.624l0.328,1.576l-4.773,7.61l-3.669,3.153&#xD;&#xA;       l-7.391,14.465l-5.628,3.35l-0.46,2.672l-5.432,5.693l-3.733,7.326l-1.829,1.029l-2.486-1.916l-2.562,1.019l0,0l-2.102-1.72&#xD;&#xA;       l1.27-7.938l-5.059-2.124l-2.102-5.869l-6.318-5.475l-1.259-7.544l-3.373-0.855l-2.102,1.654l-1.26-6.285l-2.956,0.821l2.113-3.755&#xD;&#xA;        l5.475,0.448l4.631-3.328l0.011-4.599l1.259,2.102l2.102-2.091l-3.361-1.686l-2.529,0.821v-2.934l-1.686,2.923l-1.686-0.01&#xD;&#xA;        l0.843-1.665l-1.686-0.438v-4.599l-5.475,0.383l-0.843-5.026l-2.945-0.865v-1.675l-3.361-1.687l-0.602-1.927l-3.23-1.697&#xD;&#xA;      l-5.377-0.209l0,0l-1.347-4.303l-4.303-4.796l3.493-13.545v-6.208l-2.957-4.796l0.263-3.668l3.23-5.65l0.274-5.65l2.88-4.895l0,0&#xD;&#xA;      l3.898,2.803l3.8-2.07l4.632-6.274l-1.26-6.723l5.048-4.589L431.967,367.754z"/>
                </g>
                <g >
                    <path id="ISO-DO-31" fill="#2F90F2" stroke="#FFFFFF" stroke-width="0.75" d="M365.416,371.159l5.048,1.708l3.373,4.632l5.475,2.135&#xD;&#xA;      l4.204,4.215l13.479-2.858l11.684,6.931l0,0l-2.88,4.895l-0.274,5.65l-3.23,5.65l-0.263,3.668l2.957,4.796v6.208l-3.493,13.545&#xD;&#xA;        l4.303,4.796l1.347,4.303l0,0l-6.734,8.103l-7.533,1.413l-7.796,4.511l-4.577,1.127l-1.62,2.256l-0.613,4.894l0,0l-4.051-2.792&#xD;&#xA;        l0.427-2.934l-2.102-3.362v-2.508l-2.113-1.271l0.011-2.518l1.259-0.832l-1.259-2.102l-5.902-0.865l-3.361-4.632l-8.004-2.146&#xD;&#xA;     l-1.259-2.934l-5.486,0.811l-3.789-8.409l-9.679-6.768l-0.843-1.675l2.957-4.599l-0.427-7.128l-2.518-4.215l-5.902-4.227l0,0&#xD;&#xA;      l12.219-2.025l5.475,1.708l6.319-0.799v-5.037l4.631-3.329l4.632,0.022l-0.416-3.778l1.686-2.923l4.631-2.497l-1.259-5.88&#xD;&#xA;     L365.416,371.159z"/>
                </g>
                <g >
                    <path id="ISO-DO-22" fill="#2F90F2" stroke="#FFFFFF" stroke-width="0.75" d="M178.44,271.331l3.362,4.654l6.745-1.227l5.891,2.135&#xD;&#xA;       l3.373-1.248l3.373,0.865l0,0l4.205,3.394l6.317,0.876l7.161,2.978l2.53,3.8l4.204,2.135l0.843,9.252l6.319,5.081l10.523,3.427&#xD;&#xA;        l2.529,5.902l3.788,0.854l7.588-5.836l3.362,1.281l3.799-1.248l10.95,3.854l0,0l2.519,1.697l3.372,7.578l0,0l0.416,4.204&#xD;&#xA;      l-1.259,1.675l-7.161,1.227l2.102,5.048l-1.686,2.518l-5.901,1.227l-1.676,2.923l-4.643,1.653l0.427,4.632l-2.529,5.026&#xD;&#xA;       l-2.529,1.663l4.62,12.199v2.945l-7.161,12.965h-1.686l-2.945-7.577l-1.686-1.27l-2.945-0.022l-3.789,3.767l0.416,6.713l2.53,5.047&#xD;&#xA;        l-3.8,2.08v2.102l2.53,2.53l0.416,2.934l-4.501,2.781l-4.204,0.109l-2.792,6.921h-2.475l-5.716,5.935l-6.011,0.196l0,0&#xD;&#xA;        l-1.259-3.503l-5.475-1.708l-15.165,5.365l-14.322-1.336l-2.945,3.329l-2.113-0.011l-4.632,3.329l-8.42-1.719l-0.427-2.518&#xD;&#xA;        l-2.945-0.854l-3.362,1.653l-1.27-2.518l-6.317-3.394l-8.421,0.788l-4.632-1.281l-6.318-4.227l0,0l0,0l0,0l3.373-8.376l-1.686-5.88&#xD;&#xA;        l-8.847-2.146l-3.778-6.318l2.946-5.026l-0.416-2.091l-3.373-2.967l-5.059-1.697l-1.676-3.789l-3.373-2.124l3.789-5.859&#xD;&#xA;       l-1.259-4.62l0.427-8.825l-4.215,2.08l0.427-5.036l3.789-6.285l0.427-4.194l-1.686-0.427l-0.843-2.113l11.377-12.965l10.106,1.742&#xD;&#xA;     l3.373-1.238l0.427-5.464l6.318-12.997l-0.417-5.048l4.216-6.296l2.529-0.821l8.004,1.304l4.204,4.237l2.945,0.011l0.427,1.686&#xD;&#xA;        l1.676,0.01l3.372-2.923l5.059,0.021l2.945-1.664l1.27-1.676l-0.843-2.945l1.27-11.354L178.44,271.331z"/>
                </g>
                <g >
                    <path id="ISO-DO-23" fill="#2F90F2" stroke="#FFFFFF" stroke-width="0.75" d="M618.55,367.546l-1.687,7.971l0.843,2.103l3.788,1.697&#xD;&#xA;      l2.53,7.15l-0.011,6.713l1.685,2.518l-2.945,3.767l0.416,1.675l2.529,1.271l3.79,6.318l2.102,7.139l3.787,2.54l3.373,10.917&#xD;&#xA;       l4.622,7.577l1.686-3.767l7.588-5.825l0.427-2.518l2.519,0.021l-0.832-5.88l2.102-6.69l5.475-0.394l4.642-4.172l0,0l3.362,1.281&#xD;&#xA;       l1.27,2.946l5.048-1.227l3.787,1.27l6.745,4.654l2.102,5.048l6.318,3.383l5.048-2.059l6.745,0.032l0.843,1.687l-2.113,0.821&#xD;&#xA;       l-1.26,10.051l0,0l-1.27,3.766l-3.789,3.756l-1.686,5.432l6.734,9.679l2.102,10.62l0,0l-23.542-6.788l-3.406-2.606l1.183-0.548&#xD;&#xA;        l-0.985-3.493l-2.551-1.369l-6.22,2.464l-7.786,0.142l-6.679,2.125l-3.789-1.577l0.328-1.511l-1.116-0.274l-1.379,0.963l1.05,1.916&#xD;&#xA;        l-3.338,2.606l-20.804-0.208l-21.002,5.354l-4.817-0.076l0,0l-0.022-10.83l2.114-0.832l0.415-4.183l-10.95-0.909l-7.16-4.226&#xD;&#xA;      l-2.102-5.464l-2.946-1.687l3.373-2.912l5.902-11.706l-2.113-3.788l1.697-6.701l-2.957,1.249l-0.843-2.53l4.654-5.716l0,0&#xD;&#xA;     l5.879-8.902l4.227-13.829l8.005-12.121l5.475-6.263l3.371,1.27L618.55,367.546z"/>
                </g>
                <g >
                    <path id="ISO-DO-24" fill="#2F90F2" stroke="#FFFFFF" stroke-width="0.75" d="M424.829,282.402l-0.832-1.686l1.259-0.832l6.745-0.383&#xD;&#xA;     l0.843,2.102l2.518-0.821l1.27,2.102l4.205,1.292l1.27-2.934l1.259,1.686l4.632-4.182l1.686,0.427l-0.843,2.946l4.632-0.821v2.945&#xD;&#xA;     l2.113-3.766l2.518-0.833l0,0v3.362l0,0l1.27,0.438l2.529-2.934l2.946,0.438l1.259,1.686l4.216-2.081l1.259,2.529l2.957,0.022&#xD;&#xA;     l4.206,3.81l9.69,2.573l2.945,2.124l4.216-2.923l2.102,0.011l8.004,5.091l7.161,1.73l-2.957,13.436l0,0l-4.215,8.387l0.843,3.789&#xD;&#xA;      l1.687,1.27l-0.428,6.296l-3.799,9.22l-6.318,8.792l-4.215-0.449l-9.264-5.923l-3.788,5.858l-4.632-0.449l-1.685-2.529&#xD;&#xA;        l-1.687-0.011l-4.631,2.913l-4.631-0.021l-3.373,5.857l-16.009-0.93l-5.365,3.603l0,0l-1.073-4.424l-3.307-4.939l-20.99-17.519&#xD;&#xA;        l-0.843-5.047l-8.42-2.99l0.427-10.085l-4.631-5.069l-0.844-3.789l0,0l3.373-6.296l5.059-1.653l3.789-5.026l8.004,0.471&#xD;&#xA;       l2.529-1.248l1.259-3.778l2.945,0.854l0.427-1.259L424.829,282.402z"/>
                </g>
                <g >
                    <path id="ISO-DO-25" fill="#2F90F2" stroke="#FFFFFF" stroke-width="0.75" d="M287.575,159.437l10.523,3.854l1.686-1.676l9.263,8.486&#xD;&#xA;     l3.789,0.449l1.686,3.799l2.102,0.865l6.318-2.496l1.686-2.102l0.843-2.529l-2.102-8.869l0.843-2.114l17.268,8.968l0.843,3.799&#xD;&#xA;        l-2.529,8.847l1.686,4.643l9.263,1.741l11.366,5.124l0,0v5.059l-8.847,5.858l0.416,6.318l-2.946,6.734l2.946,10.544l-4.632-1.292&#xD;&#xA;      l-2.54,3.777l0,0l-4.205-0.021l-4.632,2.924l-7.588,2.069l-1.686,4.194l-5.891-0.449l-3.8,1.665l-0.843,1.675l-3.361-0.022&#xD;&#xA;        l0.832,3.372l2.529,1.281v1.271l-3.373-0.022l0.844,1.27l16.424,7.249l-1.26,2.092l1.26,2.54l-1.26,1.675l0.843,2.53l-1.686,2.934&#xD;&#xA;     l1.675,1.27l-0.416,2.945l1.686,1.27l-1.686,2.103l-2.113,0.821l-4.632-1.708l-2.519-3.799l-3.373,5.452l-0.854,5.464l-9.263,5.42&#xD;&#xA;     l-8.42,1.215l-2.957,6.285l-3.788,0.821l-3.373,2.508l-3.789-0.438l-4.632,5.431l-5.902-0.448l-0.416,2.518l2.102,5.901&#xD;&#xA;       l-1.686,3.778l0,0l-10.95-3.854l-3.799,1.248l-3.362-1.281l-7.588,5.836l-3.788-0.854l-2.529-5.902l-10.523-3.427l-6.319-5.081&#xD;&#xA;        l-0.843-9.252l-4.204-2.135l-2.53-3.8l-7.161-2.978l-6.317-0.876l-4.205-3.394l0,0l1.686-13.041l-2.103-4.632l-2.945-0.865&#xD;&#xA;        l-1.686-3.799l0.843-1.676l2.529-0.405l-0.843-5.486l1.27-5.048l-2.529-4.216l2.102-0.416l1.27-3.362l2.945,1.281l-0.416-5.475&#xD;&#xA;        l5.891-4.599l6.745-1.653l1.686,3.383l2.946,0.011l0.427-2.946l3.362-0.405v-1.258l3.373,0.437l1.686-4.62l3.372-1.664l4.205,0.438&#xD;&#xA;        l2.113-2.518l-3.789-1.281l0.843-2.946l-2.529-2.967l2.529-0.822l1.686-3.361l0,0l13.052,6.811l8.004-0.372l3.789-4.621&#xD;&#xA;       l2.529,3.384l5.902,1.719l3.361-1.664l8.848,0.471l2.529-3.351l-5.475-2.562l-2.518-3.81l3.372-13.052l-4.632-1.292l-0.843-2.113&#xD;&#xA;      l-1.27,0.832l-2.946-2.54l0.844-2.946l-2.103-2.124v-2.957l10.522,5.968l5.486-9.669L287.575,159.437z"/>
                </g>
                <g >
                    <path id="ISO-DO-26" fill="#2F90F2" stroke="#FFFFFF" stroke-width="0.75" d="M158.249,183.592l1.292-0.438l-0.438-3.35l2.103-0.416&#xD;&#xA;      l-0.427,2.113l5.475,4.248v2.102l2.113-2.091l5.891,1.292l7.588-5.015l2.518,0.438l2.957-2.935l5.059,5.113h5.047l3.362,2.979&#xD;&#xA;     l2.529-0.416l2.113-4.205l6.734,2.573l0,0v5.059l1.686,1.697l1.26,5.912l7.577,1.303l5.475,3.405l9.691-0.362l0,0l-1.686,3.361&#xD;&#xA;        l-2.529,0.822l2.529,2.967l-0.843,2.946l3.789,1.281l-2.113,2.518l-4.205-0.438l-3.372,1.664l-1.686,4.62l-3.373-0.437v1.258&#xD;&#xA;      l-3.362,0.405l-0.427,2.946l-2.946-0.011l-1.686-3.383l-6.745,1.653l-5.891,4.599l0.416,5.475l-2.945-1.281l-1.27,3.362&#xD;&#xA;       l-2.102,0.416l2.529,4.216l-1.27,5.048l0.843,5.486l-2.529,0.405l-0.843,1.676l1.686,3.799l2.945,0.865l2.103,4.632l-1.686,13.041&#xD;&#xA;     l0,0l-3.373-0.865l-3.373,1.248l-5.891-2.135l-6.745,1.227l-3.362-4.654l0,0l-13.479-7.654l-2.53-0.011l-8.836-6.789l-0.428-5.048&#xD;&#xA;     l-2.945-4.227l-9.68-3.011l0,0l-0.843-2.102l-4.632-3.395l-0.843-4.216l5.891,1.292l6.319-1.226l-0.405-18.122l4.631-4.183&#xD;&#xA;        l-1.259-15.603l2.529-5.048l6.318-6.712L158.249,183.592L158.249,183.592z"/>
                </g>
                <g >
                    <path id="ISO-DO-32" fill="#2F90F2" stroke="#FFFFFF" stroke-width="0.75" d="M451.754,385.076l2.102-1.248l2.53,0.438l8.836,14.311&#xD;&#xA;      l10.949,0.066l5.475,5.059l4.216-2.497l7.588,0.887l2.518-3.339l2.957-0.405l1.675-2.092l-0.415-4.61l9.69,3.822l6.318-2.891&#xD;&#xA;      l5.903-0.394l6.307,12.624l2.113-1.248l2.519,0.854l-0.417,7.128l0.832,1.259l4.216,0.022l2.102,4.632l-0.416,3.767l1.26,3.361&#xD;&#xA;        l7.588-5.409l2.102-6.701l5.059-3.745l2.529,0.854l4.994-1.587l4.555,0.361l7.893-2.661l1.698-3.559h4.226l9.921,3.569l0,0&#xD;&#xA;        l-4.654,5.716l0.843,2.53l2.957-1.249l-1.697,6.701l2.113,3.788l-5.902,11.706l-3.373,2.912l2.946,1.687l2.102,5.464l7.16,4.226&#xD;&#xA;       l10.95,0.909l-0.415,4.183l-2.114,0.832l0.022,10.83l0,0l-4.611-1.303l-10.599-9.186l-6.482-0.274l-2.815,2.266l1.512,7.95&#xD;&#xA;        l-2.365,1.576l-7.721-2.464l-2.617-4.248l-0.46-4.664l-3.985-1.993l-20.158-2.803l-22.315-0.284l0,0l1.697-8.333l-3.471-2.278&#xD;&#xA;     l-11.979,3.175l-5.059-4.686l-2.015-5.146l-2.594-1.062l-1.884,1.369l-1.302,5.749l-3.023,1.664l8.365,8.475l0.143,6.054&#xD;&#xA;      l-2.595,2.716l-0.186,2.453l0,0l-2.99,1.237l-3.285-0.756l0,0l1.15-3.734l-1.685-1.269l-0.417-2.508l-1.259,0.404l0.416-4.598&#xD;&#xA;     l-3.373,3.745l-2.102-0.428l-1.686-2.529l-2.102-0.011l-2.946,3.339l0.417-4.61l-3.362-0.023l-0.428-1.258l4.216-1.643&#xD;&#xA;        l-2.102-5.464l-4.216-4.631l-1.259,0.404v1.676l-3.372,0.405l-2.529-0.439l-0.844-1.675l-1.676-8.815l-1.686-0.427l-2.946-7.982&#xD;&#xA;       l-2.113-1.686l0.854-6.713l1.686-0.405l2.102,1.686l0.416-1.675l-4.204-6.318l-0.844-8.388l-3.788-5.475v-2.518L451.754,385.076z"/>
                </g>
                <g >
                    <path id="ISO-DO-27" fill="#2F90F2" stroke="#FFFFFF" stroke-width="0.75" d="M224.001,132.074l6.296,2.978l10.95,2.168l1.686,5.081&#xD;&#xA;      l5.048,2.135l8.847-1.216l5.048,5.092l6.745,3l0.416,2.103l3.788,3.821l1.686-0.832l3.788,2.551l9.274,0.482l0,0l-1.27,9.274&#xD;&#xA;      l-5.486,9.669l-10.522-5.968v2.957l2.103,2.124l-0.844,2.946l2.946,2.54l1.27-0.832l0.843,2.113l4.632,1.292l-3.372,13.052&#xD;&#xA;        l2.518,3.81l5.475,2.562l-2.529,3.351l-8.848-0.471l-3.361,1.664l-5.902-1.719l-2.529-3.384l-3.789,4.621l-8.004,0.372&#xD;&#xA;        l-13.052-6.811l0,0l-9.691,0.362l-5.475-3.405l-7.577-1.303l-1.26-5.912l-1.686-1.697v-5.059l0,0l3.372-4.621l0.844-3.788&#xD;&#xA;     l-0.416-5.507l-2.946-6.745l0.843-2.53l3.8,0.887l1.248-1.282l1.697,1.282v-6.778l-2.103-6.756L224.001,132.074z"/>
                </g>
               
            
            </svg>