<svg xmlns="http://www.w3.org/2000/svg" xmlns:xlink="http://www.w3.org/1999/xlink" width="500px" height="403px" viewBox="0 0 500 403" version="1.1">
<g id="surface1">
<path id="PR-01" style="fill-rule:nonzero;fill:rgb(18.431373%,56.470588%,94.901961%);fill-opacity:1;stroke-width:0.75;stroke-linecap:butt;stroke-linejoin:miter;stroke:rgb(100%,100%,100%);stroke-opacity:1;stroke-miterlimit:4;" d="M 495.597656 460.658344 L 495.780469 458.205791 L 498.375 455.47917 L 498.234375 449.428602 L 489.860156 440.95359 L 492.890625 439.288103 L 494.191406 433.539712 L 496.075781 432.183429 L 498.670312 433.244562 L 500.695312 438.388599 L 505.74375 443.075857 L 517.725 439.899484 L 521.198437 442.169326 L 519.496875 450.510817 L 517.535156 450.23675 L 510.475781 453.729354 L 505.371094 458.39553 Z M 495.597656 460.658344 " transform="matrix(0.555556,0,0,0.555862,0,0)"/>
<path id="PR-02" style="fill-rule:nonzero;fill:rgb(18.431373%,56.470588%,94.901961%);fill-opacity:1;stroke-width:0.75;stroke-linecap:butt;stroke-linejoin:miter;stroke:rgb(100%,100%,100%);stroke-opacity:1;stroke-miterlimit:4;" d="M 281.19375 321.537444 L 287.936719 317.791854 L 293.414062 323.28726 L 291.726562 326.639316 L 292.141406 330.42707 L 296.360156 334.650521 L 296.360156 336.758733 L 293.414062 338.002578 L 293.828906 348.501473 L 297.61875 353.146567 L 297.189844 356.575925 L 298.582031 358.873876 L 305.585156 363.680599 L 311.927344 372.956731 L 316.560937 372.563198 L 322.889062 374.334096 L 328.176562 378.831614 L 329.610937 383.195613 L 329.610937 390.39867 L 328.760156 395.795692 L 326.25 398.641778 L 332.142187 402.872257 L 334.673437 407.074626 L 335.088281 414.200382 L 332.142187 418.803311 L 332.985937 420.489881 L 342.675 427.243186 L 346.464844 435.654951 L 351.942187 434.839776 L 353.200781 437.784245 L 361.202344 439.934621 L 364.577344 444.56566 L 370.469531 445.444081 L 371.728125 447.545266 L 370.469531 448.374496 L 370.469531 450.897323 L 372.571875 452.16225 L 372.571875 454.685077 L 374.674219 458.044161 L 374.245312 460.981603 L 378.295312 463.77147 L 380.1375 466.870541 L 380.1375 470.222598 L 375.489844 476.469933 L 375.067969 482.745376 L 376.326562 488.613233 L 373.795312 494.460007 L 364.10625 497.34123 L 354.839062 497.713681 L 353.622656 498.86617 L 351.597656 497.285011 L 351.597656 495.373565 L 354.346875 489.337052 L 356.308594 488.859191 L 355.521094 481.45234 L 357.01875 477.271053 L 354.135937 465.345601 L 349.432031 462.197338 L 333.070312 459.105294 L 328.957031 459.716676 L 327.445312 463.082787 L 323.775 464.656919 L 325.539844 471.171293 L 319.978125 478.156502 L 315.857812 480.285796 L 304.010156 480.559864 L 303.813281 478.704637 L 301.661719 478.226776 L 299.7 479.386292 L 300.09375 481.445312 L 295.776562 484.326535 L 296.04375 483.089718 L 294.4125 482.956198 L 295.973437 481.037725 L 292.703906 479.800907 L 292.113281 481.382066 L 288.9 482.68213 L 286.945312 485.626599 L 286.748437 489.055957 L 283.66875 493.159943 L 275.617969 500.840862 L 265.675781 504.607533 L 262.996875 502.176062 L 265.549219 500.124069 L 267.658594 492.604781 L 266.814844 488.838109 L 262.188281 482.112913 L 265.141406 479.618196 L 265.141406 477.524038 L 261.766406 475.415827 L 257.139844 479.161416 L 252.077344 477.446737 L 249.975 473.258423 L 246.185156 473.651956 L 243.239062 466.92676 L 250.403906 464.03851 L 252.513281 454.411009 L 256.732031 453.602861 L 258.419531 451.522759 L 257.160937 447.327417 L 250.839844 443.518581 L 247.478906 435.950101 L 250.010156 436.80744 L 252.1125 441.839039 L 259.699219 438.114532 L 255.065625 433.483493 L 226.005469 423.258665 L 218.847656 416.512388 L 217.589062 413.708466 L 223.600781 413.511699 L 229.317187 407.587624 L 231.792187 407.587624 L 234.583594 400.658634 L 238.788281 400.553224 L 243.288281 397.770384 L 242.866406 394.832942 L 240.342187 392.303088 L 240.342187 390.201904 L 244.125 388.121801 L 241.600781 383.076148 L 241.178906 376.365007 L 244.96875 372.61239 L 247.914844 372.633472 L 249.602344 373.898399 L 252.548437 381.480934 L 254.235937 381.487961 L 261.39375 368.515431 L 261.39375 365.577989 L 256.760156 353.37847 L 259.291406 351.72001 L 261.822656 346.688411 L 261.407812 342.071427 L 266.034375 340.412967 L 267.721875 337.482553 L 273.621094 336.252762 L 275.308594 333.751018 L 273.20625 328.698337 L 280.371094 327.482601 L 281.636719 325.810086 Z M 281.19375 321.537444 " transform="matrix(0.555556,0,0,0.555862,0,0)"/>
<path id="PR-03" style="fill-rule:nonzero;fill:rgb(18.431373%,56.470588%,94.901961%);fill-opacity:1;stroke-width:0.75;stroke-linecap:butt;stroke-linejoin:miter;stroke:rgb(100%,100%,100%);stroke-opacity:1;stroke-miterlimit:4;" d="M 129.529687 405.078852 L 135.84375 409.30933 L 140.477344 410.588312 L 148.900781 409.801247 L 155.214844 413.195468 L 156.4875 415.711267 L 159.848437 414.059834 L 162.794531 414.917174 L 163.223437 417.432973 L 171.639844 419.147652 L 176.273437 415.823705 L 178.382812 415.830732 L 181.328906 412.506785 L 195.651562 413.841986 L 210.817969 408.473073 L 216.295312 410.180725 L 217.553906 413.687384 L 218.8125 416.477251 L 225.970312 423.237583 L 255.030469 433.462411 L 259.664062 438.09345 L 252.077344 441.824984 L 249.975 436.779331 L 247.457812 435.929019 L 245.770312 438.430763 L 247.872656 442.218517 L 241.973437 441.761738 L 243.653906 443.876977 L 242.810156 448.472879 L 236.910937 449.702669 L 236.067187 453.883956 L 233.121094 454.706159 L 231.01875 453.019589 L 225.534375 458.009024 L 220.900781 457.573327 L 220.485937 459.238814 L 224.704687 460.946466 L 224.275781 462.611953 L 210.796875 467.987894 L 207.421875 472.155126 L 207 478.845185 L 209.102344 480.117139 L 208.258594 482.211296 L 198.147656 482.984307 L 194.786719 479.196553 L 191.840625 469.133355 L 188.050781 466.596474 L 184.682812 461.972462 L 180.049219 461.937326 L 166.141406 471.079938 L 164.039062 471.07291 L 152.676562 461.782723 L 145.926562 458.402557 L 136.251562 456.673823 L 109.715625 443.532636 L 107.60625 440.173552 L 106.769531 431.361226 L 113.090625 416.730236 L 113.090625 409.60448 L 122.364844 407.967102 Z M 129.529687 405.078852 " transform="matrix(0.555556,0,0,0.555862,0,0)"/>
<path id="PR-04" style="fill-rule:nonzero;fill:rgb(18.431373%,56.470588%,94.901961%);fill-opacity:1;stroke-width:0.75;stroke-linecap:butt;stroke-linejoin:miter;stroke:rgb(100%,100%,100%);stroke-opacity:1;stroke-miterlimit:4;" d="M 247.457812 435.929019 L 250.825781 443.490472 L 257.146875 447.306335 L 258.405469 451.49465 L 256.717969 453.574752 L 252.50625 454.389927 L 250.389844 464.010401 L 243.232031 466.905678 L 246.178125 473.623847 L 249.960937 473.230314 L 252.063281 477.43971 L 257.125781 479.147362 L 261.759375 475.401772 L 265.127344 477.509984 L 265.127344 479.604141 L 262.18125 482.098858 L 266.814844 488.824054 L 267.658594 492.604781 L 265.55625 500.124069 L 263.003906 502.176062 L 261.049219 500.559767 L 259.741406 495.218963 L 256.007812 491.789605 L 250.115625 489.055957 L 247.5 489.807886 L 247.169531 488.507822 L 241.017187 485.7039 L 237.614062 486.666651 L 237.480469 488.374302 L 240.096094 486.863417 L 241.150781 487.896441 L 231.539062 496.455781 L 229.900781 502.963128 L 235.989844 511.930056 L 233.901562 514.185843 L 238.422656 518.978511 L 239.871094 524.178767 L 242.620312 527.19351 L 240.588281 530.074732 L 238.633594 538.767593 L 233.198437 548.753489 L 230.716406 549.71624 L 228.030469 553.131543 L 228.164062 555.253809 L 223.122656 558.753441 L 223.192969 563.539082 L 221.561719 563.742876 L 216.914062 568.591763 L 207.16875 584.656337 L 202.992187 589.716046 L 194.350781 596.349886 L 190.617187 603.117246 L 189.260156 601.128499 L 188.915625 598.352687 L 190.18125 596.694227 L 189.3375 591.262068 L 187.748437 590.095524 L 187.474219 586.539673 L 181.898437 579.554465 L 178.832812 579.554465 L 177.440625 584.206585 L 173.545312 585.366102 L 169.122656 579.856642 L 166.591406 578.177099 L 164.629687 578.500359 L 163.511719 574.888289 L 160.734375 572.850351 L 155.721094 572.850351 L 154.040625 570.81944 L 154.877344 560.053505 L 157.654687 561.508171 L 160.720312 560.62975 L 165.178125 554.811085 L 165.178125 547.242604 L 161.282812 540.83364 L 166.296094 540.538491 L 167.688281 537.341036 L 161.282812 532.681888 L 156.213281 532.119698 L 156.909375 524.614464 L 159.011719 521.698104 L 162.386719 520.875901 L 165.761719 522.576526 L 172.919531 522.19002 L 169.558594 510.882977 L 163.2375 498.718595 L 163.2375 497.039053 L 169.558594 488.704589 L 176.294531 493.764297 L 191.460937 495.942783 L 201.564844 493.075615 L 207.464062 485.577408 L 208.307812 482.239406 L 209.151562 480.145249 L 207.049219 478.873294 L 207.478125 472.176208 L 210.853125 468.001948 L 224.332031 462.640063 L 224.753906 460.960521 L 220.542187 459.266924 L 220.964062 457.587382 L 225.597656 458.037134 L 231.075 453.040672 L 233.177344 454.727241 L 236.123437 453.912066 L 236.967187 449.723752 L 242.866406 448.500989 L 243.710156 443.898059 L 242.022656 441.796875 L 247.921875 442.246627 L 245.819531 438.472928 Z M 247.457812 435.929019 " transform="matrix(0.555556,0,0,0.555862,0,0)"/>
<path id="PR-05" style="fill-rule:nonzero;fill:rgb(18.431373%,56.470588%,94.901961%);fill-opacity:1;stroke-width:0.75;stroke-linecap:butt;stroke-linejoin:miter;stroke:rgb(100%,100%,100%);stroke-opacity:1;stroke-miterlimit:4;" d="M 82.4625 158.2986 L 87.91875 162.522051 L 92.1375 162.128519 L 105.616406 167.680143 L 125.824219 166.956324 L 130.042969 164.447552 L 135.935156 164.897303 L 138.0375 171.664663 L 148.141406 176.780591 L 151.0875 180.603482 L 158.252344 183.590115 L 158.252344 185.276685 L 151.93125 191.987826 L 149.4 197.033479 L 150.658594 212.641274 L 146.032031 216.822561 L 146.432812 234.946156 L 140.11875 236.168919 L 134.226562 234.875882 L 135.070312 239.092306 L 139.703906 242.486527 L 140.540625 244.587711 L 134.2125 252.13511 L 127.061719 249.155504 L 123.69375 249.977706 L 119.060156 247.42677 L 116.94375 249.520927 L 116.107031 255.82448 L 112.317187 255.803398 L 106.839844 261.249612 L 99.766406 260.743641 L 99.295312 259.591152 L 93.754687 258.445691 L 89.49375 254.981196 L 89.49375 253.055696 L 85.696875 251.228579 L 85.507031 248.719807 L 83.946094 252.683245 L 81.998437 248.930628 L 79.973437 249.605256 L 78.391406 248.263027 L 78.855469 245.936967 L 77.097656 245.459106 L 77.561719 242.465445 L 75.051562 238.031172 L 71.078906 235.536455 L 74.397656 233.695283 L 79.017187 233.400134 L 80.121094 229.731845 L 85.478906 226.731157 L 87.039844 227.595524 L 87.876562 225.276491 L 91.019531 228.35448 L 92.594531 228.35448 L 91.652344 219.289169 L 96.075 210.013037 L 96.067969 205.56471 L 92.559375 199.127636 L 93.817969 190.125572 L 91.146094 190.322338 L 90.478125 185.213438 L 88.0875 185.213438 L 88.073437 180.863494 L 80.767969 172.760934 L 80.289844 160.399785 Z M 82.4625 158.2986 " transform="matrix(0.555556,0,0,0.555862,0,0)"/>
<path id="PR-06" style="fill-rule:nonzero;fill:rgb(18.431373%,56.470588%,94.901961%);fill-opacity:1;stroke-width:0.75;stroke-linecap:butt;stroke-linejoin:miter;stroke:rgb(100%,100%,100%);stroke-opacity:1;stroke-miterlimit:4;" d="M 440.451562 195.304746 L 442.553906 197.848655 L 450.5625 200.849343 L 451.40625 202.964582 L 454.352344 202.556994 L 456.447656 203.828949 L 459.822656 214.805705 L 458.557031 223.231525 L 460.2375 224.496452 L 466.129687 238.43876 L 481.710937 240.202631 L 483.398437 241.481613 L 482.969531 249.05712 L 485.500781 251.601029 L 496.448437 253.76546 L 505.29375 257.602406 L 519.609375 261.474488 L 528.454687 267.841288 L 541.504687 269.591104 L 545.723437 264.14489 L 557.514844 266.316348 L 561.304688 265.494145 L 563.421094 268.038054 L 570.578906 268.080219 L 570.15 269.752733 L 568.4625 269.745706 L 566.360156 272.261506 L 565.094531 277.300132 L 563.407031 277.286077 L 562.992188 278.972647 L 560.460938 278.122334 L 559.617188 279.794849 L 557.514844 280.202437 L 557.514844 282.732291 L 553.717969 285.227008 L 551.200781 285.212954 L 551.200781 287.742808 L 553.717969 290.701332 L 555.405469 295.76104 L 549.928125 295.725903 L 548.655469 296.976776 L 541.497656 295.255069 L 536.449219 297.335172 L 529.291406 296.449723 L 524.657812 298.529825 L 519.595312 296.808119 L 519.595312 308.164353 L 517.914844 309.422253 L 509.90625 308.951419 L 512.866406 295.515082 L 505.701562 293.786348 L 497.7 288.698531 L 495.597656 288.684476 L 491.378906 291.607863 L 488.432812 289.485596 L 478.74375 286.913578 L 474.539062 283.097714 L 471.585937 283.076632 L 470.327344 280.546778 L 466.108594 282.633908 L 464.85 280.947338 L 461.903906 280.504614 L 459.372656 283.442056 L 458.107031 283.006359 L 458.107031 279.640247 L 455.582812 280.476504 L 453.473437 284.243176 L 453.473437 281.29168 L 448.839844 282.113882 L 449.683594 279.169413 L 447.996094 278.740743 L 443.3625 282.92203 L 442.103906 281.242488 L 440.838281 284.172902 L 436.633594 282.879866 L 435.360937 280.778681 L 432.84375 281.600884 L 432 279.4997 L 425.257031 279.879178 L 423.998437 280.715435 L 424.828125 282.402004 L 423.154687 282.38795 L 421.467187 279.014811 L 415.146094 275.606535 L 408.832031 269.267845 L 405.471094 262.929154 L 403.36875 254.496307 L 408.839062 247.370551 L 408.839062 243.168182 L 410.955469 238.544171 L 410.526562 235.585647 L 414.330469 220.870328 L 421.073437 215.845756 L 432.45 210.849294 L 432.45 209.591395 L 429.075 208.312413 L 428.23125 206.197174 L 429.496875 203.667319 L 437.083594 200.343372 L 437.5125 196.97726 L 435.396094 194.854994 Z M 440.451562 195.304746 " transform="matrix(0.555556,0,0,0.555862,0,0)"/>
<path id="PR-08" style="fill-rule:nonzero;fill:rgb(18.431373%,56.470588%,94.901961%);fill-opacity:1;stroke-width:0.75;stroke-linecap:butt;stroke-linejoin:miter;stroke:rgb(100%,100%,100%);stroke-opacity:1;stroke-miterlimit:4;" d="M 693.16875 307.834067 L 695.130469 308.459503 L 699.510937 315.817162 L 703.307812 316.027983 L 704.165625 318.916234 L 711.815625 322.56344 L 723.99375 321.60069 L 726.089062 318.642166 L 723.403125 314.99496 L 725.885156 313.905717 L 730.06875 315.283082 L 733.935937 310.947193 L 737.535937 312.247257 L 740.41875 310.869892 L 746.507812 312.169956 L 758.8125 320.77146 L 765.478125 319.871956 L 770.716406 323.448889 L 775.673437 323.863504 L 775.673437 328.108037 L 773.571094 327.250698 L 773.149219 331.031424 L 771.046875 330.174085 L 769.788281 332.689884 L 766.413281 333.097472 L 765.984375 339.822668 L 761.357812 342.732 L 769.345312 360.84154 L 768.923437 371.762077 L 758.383594 380.518184 L 754.600781 387.636913 L 748.694531 386.758491 L 741.965625 387.988281 L 741.536719 394.699422 L 739.849219 396.36491 L 741.951562 401.410563 L 733.95 400.110499 L 726.35625 416.006417 L 722.573437 421.023961 L 715.408594 426.435038 L 714.564844 429.365452 L 709.93125 433.954327 L 704.875781 435.60576 L 706.148437 425.556616 L 708.24375 424.734414 L 707.4 423.061899 L 700.671094 423.019735 L 695.608594 425.085782 L 689.294531 421.705616 L 687.192187 416.652935 L 680.45625 412.000814 L 676.666406 410.721832 L 671.610937 411.944595 L 670.352344 409.000126 L 666.991406 407.721144 L 667.413281 403.525803 L 671.632031 401.031085 L 675.857812 375.465503 L 673.755469 370.827437 L 666.604687 361.972947 L 658.603125 358.564671 L 657.344531 354.362302 L 653.554687 352.661678 L 650.608594 345.500785 L 648.077344 342.970931 L 648.077344 340.455131 L 650.19375 329.963264 L 652.296094 329.562704 L 669.135937 339.316697 L 682.614844 341.066513 L 683.8875 338.979383 L 683.465625 336.027887 L 674.620312 328.424269 L 671.245312 322.521276 L 670.830469 317.897265 L 674.205469 317.075062 L 676.722656 314.503044 L 678.9375 316.906405 L 681.946875 316.421516 L 683.458594 315.936628 L 690.391406 315.522013 L 691.635937 316.969651 L 691.045312 318.754604 L 693.007031 319.443287 L 694.764844 316.75883 L 694.504687 310.771509 L 692.992969 308.775735 L 690.180469 309.471445 Z M 693.16875 307.834067 " transform="matrix(0.555556,0,0,0.555862,0,0)"/>
<path id="PR-09" style="fill-rule:nonzero;fill:rgb(18.431373%,56.470588%,94.901961%);fill-opacity:1;stroke-width:0.75;stroke-linecap:butt;stroke-linejoin:miter;stroke:rgb(100%,100%,100%);stroke-opacity:1;stroke-miterlimit:4;" d="M 403.474219 141.172893 L 407.010937 146.492614 L 417.614062 155.136283 L 427.696875 159.479199 L 437.442187 159.767321 L 450.724219 164.595126 L 456.616406 164.735674 L 469.117969 162.163655 L 468.682031 170.582448 L 466.565625 175.213487 L 450.984375 183.140363 L 442.982812 181.826245 L 441.724219 182.662502 L 442.553906 189.001192 L 440.451562 195.311773 L 435.396094 194.862021 L 429.503906 188.080606 L 429.503906 182.170586 L 425.292187 180.048319 L 417.7125 181.685697 L 415.610156 184.623139 L 413.078906 185.452369 L 409.282031 195.136089 L 407.179687 195.965319 L 403.389844 193.414382 L 402.117187 187.504362 L 397.490625 186.632968 L 392.442187 182.388434 L 386.964844 195.002569 L 387.379687 200.912589 L 385.270312 204.278701 L 385.270312 207.644812 L 388.638281 212.718576 L 388.638281 215.677099 L 385.685156 221.973626 L 381.0375 239.647468 L 378.520312 243.41414 L 373.035937 243.386031 L 372.20625 234.538568 L 368.416406 227.356593 L 364.197656 231.96655 L 360.414844 232.360083 L 349.038281 231.038936 L 346.507031 227.2301 L 349.045312 223.449374 L 353.678906 224.74241 L 350.732812 214.201351 L 353.678906 207.462101 L 353.264062 201.144492 L 362.109375 195.290691 L 362.109375 190.230982 L 364.640625 188.136825 L 365.484375 178.439051 L 369.28125 173.81504 L 368.008594 168.326661 L 369.696094 165.382192 L 368.866406 161.587411 L 371.383594 160.751153 L 370.96875 158.635914 L 373.071094 156.548785 L 376.439062 158.242381 L 377.711719 156.984482 L 380.657812 157.005564 L 381.494531 158.277518 L 381.916406 155.318994 L 385.713281 155.768746 L 387.400781 154.510846 L 389.917969 157.905067 L 391.605469 157.912095 L 392.871094 155.81091 L 394.551562 157.511535 L 394.973437 155.396295 L 396.660937 157.518562 L 398.334375 157.103947 L 396.660937 154.567065 L 402.553125 152.908605 L 400.879687 146.98453 L 403.403906 141.172893 Z M 403.474219 141.172893 " transform="matrix(0.555556,0,0,0.555862,0,0)"/>
<path id="PR-30" style="fill-rule:nonzero;fill:rgb(18.431373%,56.470588%,94.901961%);fill-opacity:1;stroke-width:0.75;stroke-linecap:butt;stroke-linejoin:miter;stroke:rgb(100%,100%,100%);stroke-opacity:1;stroke-miterlimit:4;" d="M 676.694531 314.453852 L 674.177344 317.02587 L 670.802344 317.848073 L 671.217187 322.465057 L 674.592187 328.36805 L 683.4375 335.978695 L 683.852344 338.923164 L 682.59375 341.017321 L 669.114844 339.267505 L 652.275 329.506485 L 650.172656 329.914072 L 648.05625 340.40594 L 648.05625 342.921739 L 650.5875 345.451594 L 653.533594 352.612486 L 657.323437 354.306083 L 658.582031 358.51548 L 666.583594 361.916728 L 673.748437 370.778245 L 675.850781 375.409284 L 671.625 400.988921 L 667.40625 403.483638 L 666.984375 407.67898 L 662.350781 411.846212 L 656.873437 412.239745 L 654.771094 418.943859 L 655.614844 424.811715 L 653.083594 424.79766 L 652.661719 427.320487 L 645.082031 433.146179 L 643.394531 436.912851 L 638.760937 429.34437 L 635.4 418.43086 L 631.610156 415.886951 L 629.507812 408.747141 L 625.725 402.429532 L 623.19375 401.157578 L 622.778906 399.485063 L 625.732031 395.732446 L 624.044531 393.202592 L 624.044531 386.491451 L 621.520312 379.337585 L 617.730469 377.643988 L 616.886719 375.535777 L 618.567187 367.566736 L 620.254687 366.315863 L 620.683594 363.385449 L 622.371094 362.977861 L 626.167969 357.967345 L 630.801562 356.730527 L 632.489062 352.535185 L 635.857031 352.127598 L 637.544531 346.674356 L 633.332812 345.395375 L 626.596875 346.618137 L 616.064062 341.516265 L 598.380469 331.748217 L 595.434375 328.382105 L 589.542187 325.831169 L 585.3375 322.015305 L 578.601562 319.886011 L 576.499219 316.512872 L 582.039844 298.522798 L 584.725781 299.070933 L 593.690625 295.901588 L 597.557812 298.311977 L 608.68125 296.386476 L 610.642969 299.485548 L 616.795312 298.522798 L 619.804687 301.270501 L 622.553906 299.893135 L 623.341406 294.735044 L 614.116406 295.423726 L 620.796094 293.561473 L 629.303906 293.146858 L 636.496875 297.756814 L 636.032812 301.945128 L 637.467187 304.292271 L 643.422656 305.73991 L 646.108594 307.939477 L 653.632031 306.639413 L 656.901562 310.075799 L 660.76875 311.038549 L 665.085937 314.749002 L 672.4125 311.860751 L 674.170312 311.860751 Z M 676.694531 314.453852 " transform="matrix(0.555556,0,0,0.555862,0,0)"/>
<path id="PR-10" style="fill-rule:nonzero;fill:rgb(18.431373%,56.470588%,94.901961%);fill-opacity:1;stroke-width:0.75;stroke-linecap:butt;stroke-linejoin:miter;stroke:rgb(100%,100%,100%);stroke-opacity:1;stroke-miterlimit:4;" d="M 67.760156 396.343828 L 77.294531 396.400047 L 97.938281 400.700799 L 111.417187 400.363485 L 116.050781 402.485751 L 129.529687 405.078852 L 122.364844 407.97413 L 113.090625 409.60448 L 113.090625 416.730236 L 106.776562 431.361226 L 107.60625 440.173552 L 109.722656 443.532636 L 136.251562 456.673823 L 145.933594 458.402557 L 152.676562 461.789751 L 164.046094 471.07291 L 166.148437 471.086965 L 180.049219 461.944353 L 184.682812 461.972462 L 188.057812 466.596474 L 191.847656 469.140383 L 194.79375 479.196553 L 198.154687 482.991335 L 208.258594 482.211296 L 207.414844 485.549298 L 201.522656 493.054532 L 191.404687 495.928728 L 176.238281 493.750242 L 169.509375 488.690534 L 163.188281 497.024998 L 163.188281 498.70454 L 169.509375 510.868923 L 172.870312 522.19002 L 165.705469 522.562471 L 162.3375 520.875901 L 158.976562 521.684049 L 156.860156 524.607436 L 156.164062 532.105643 L 138.958594 516.645423 L 129.76875 515.781056 L 119.383594 511.00947 L 109.441406 509.365065 L 97.896094 500.433274 L 94.95 496.64552 L 86.0625 493.62375 L 93.4875 481.136108 L 69.721875 471.691319 L 67.689844 468.240879 L 61.488281 466.905678 L 58.148437 459.337198 L 43.720312 452.450372 L 41.498437 445.549492 L 49.436719 444.094826 L 49.246875 440.932508 L 31.661719 422.239696 L 28.778906 415.80965 L 26.845312 415.80965 L 24.335156 412.366238 L 21.009375 412.844099 L 19.06875 411.024009 L 25.25625 408.227115 L 29.032031 403.13227 L 38.095312 408.395772 L 41.603906 404.931277 L 43.635937 404.931277 L 48.54375 407.896828 L 49.373437 410.194779 L 50.955469 410.012068 L 52.045312 407.700062 L 56.025 408.170896 L 57.874219 409.801247 L 61.846875 408.64173 L 64.715625 409.30933 L 66.740625 408.149814 L 65.995312 401.71274 Z M 67.760156 396.343828 " transform="matrix(0.555556,0,0,0.555862,0,0)"/>
<path id="PR-11" style="fill-rule:nonzero;fill:rgb(18.431373%,56.470588%,94.901961%);fill-opacity:1;stroke-width:0.75;stroke-linecap:butt;stroke-linejoin:miter;stroke:rgb(100%,100%,100%);stroke-opacity:1;stroke-miterlimit:4;" d="M 781.382812 516.638396 L 795.649219 523.272236 L 800.226562 523.412783 L 799.832812 522.112719 L 803.503125 522.7241 L 804.747656 524.916641 L 808.994531 526.490772 L 820.842187 525.879391 L 826.797656 531.557508 L 827.915625 537.305899 L 825.960937 538.542717 L 823.471875 536.42045 L 810.386719 533.553282 L 799.917187 537.530775 L 784.019531 531.986178 L 784.153125 529.793638 L 777.417187 522.956004 L 777.810937 518.978511 Z M 775.750781 323.870532 L 786.417187 328.543734 L 797.540625 336.175461 L 808.994531 347.454395 L 815.871094 356.934321 L 819.014062 358.656027 L 820.132031 360.989115 L 823.865625 363.188683 L 833.034375 372.816183 L 836.107031 374.945477 L 838.005469 373.230798 L 839.64375 374.193548 L 840.234375 376.119049 L 847.891406 382.921545 L 852.665625 384.432431 L 859.211719 392.809059 L 863.725781 395.205393 L 868.760156 401.319208 L 870.982031 402.759819 L 872.94375 401.523001 L 881.317969 407.151927 L 885.698437 413.118166 L 884.840625 414.565805 L 886.289062 415.465309 L 885.895312 418.487079 L 884.397656 418.627627 L 885.7125 420.475826 L 872.824219 442.77368 L 869.941406 443.525609 L 867.782812 451.347075 L 862.748437 454.642913 L 857.714062 460.538878 L 856.209375 476.519124 L 852.80625 480.700411 L 846.984375 482.54861 L 830.882812 477.4116 L 822.248437 471.719429 L 818.261719 473.637901 L 817.277344 477.404573 L 820.286719 481.171245 L 820.617187 483.708127 L 817.277344 491.114978 L 814.528125 493.925927 L 811.117969 502.618787 L 810.921094 513.989076 L 806.674219 512.070603 L 799.875 513.989076 L 792.878906 513.033353 L 788.435156 515.563208 L 790.326562 512.211151 L 786.923437 510.777567 L 785.939062 512.014384 L 787.478906 514.480992 L 784.567969 515.781056 L 785.41875 513.722036 L 784.497656 508.310959 L 770.519531 482.801595 L 765.217969 478.894376 L 763.523437 473.405998 L 749.657812 466.898651 L 752.034375 462.640063 L 752.463281 453.848819 L 754.994531 452.604974 L 754.572656 450.925432 L 762.166406 437.559369 L 761.329687 427.910786 L 755.015625 423.687335 L 750.382031 416.1048 L 748.279687 415.254488 L 747.864844 409.386632 L 744.91875 407.686007 L 744.91875 405.170208 L 742.3875 403.483638 L 741.972656 401.382454 L 739.870312 396.329773 L 741.557812 394.671313 L 741.986719 387.953144 L 748.715625 386.737409 L 754.621875 387.61583 L 758.41875 380.497102 L 768.951562 371.740995 L 769.380469 360.820458 L 761.385937 342.724973 L 766.019531 339.808613 L 766.448437 333.083417 L 769.816406 332.682857 L 771.075 330.16003 L 773.177344 331.01737 L 773.60625 327.236643 L 775.708594 328.093983 L 775.708594 323.856477 L 775.750781 323.856477 Z M 775.750781 323.870532 " transform="matrix(0.555556,0,0,0.555862,0,0)"/>
<path id="PR-07" style="fill-rule:nonzero;fill:rgb(18.431373%,56.470588%,94.901961%);fill-opacity:1;stroke-width:0.75;stroke-linecap:butt;stroke-linejoin:miter;stroke:rgb(100%,100%,100%);stroke-opacity:1;stroke-miterlimit:4;" d="M 140.540625 244.594739 L 150.222656 247.602454 L 153.16875 251.832933 L 153.597656 256.878586 L 162.428906 263.667029 L 164.960156 263.681083 L 178.439062 271.333892 L 176.751562 273.006407 L 175.485937 284.362642 L 176.329687 287.307111 L 175.057031 288.979625 L 172.110937 290.645113 L 167.055469 290.624031 L 163.680469 293.547418 L 162.007031 293.54039 L 161.578125 291.853821 L 158.632031 291.839766 L 154.427344 287.60226 L 146.425781 286.302196 L 143.894531 287.124399 L 139.682812 293.420925 L 140.097656 298.466579 L 133.776562 311.460191 L 133.354687 316.927487 L 129.979687 318.164305 L 119.875781 316.421516 L 108.499219 329.387019 L 109.342969 331.502258 L 111.023437 331.930928 L 110.601562 336.119242 L 106.811719 342.408741 L 106.382812 347.44034 L 110.594531 345.360238 L 110.172656 354.186618 L 111.43125 358.810629 L 107.641406 364.664431 L 111.016406 366.793725 L 112.689844 370.581479 L 117.752344 372.275076 L 121.120312 375.240627 L 121.535156 377.334784 L 118.589062 382.359356 L 122.371875 388.676964 L 131.217187 390.82734 L 132.904687 396.702224 L 129.529687 405.078852 L 116.050781 402.485751 L 111.417187 400.363485 L 97.938281 400.700799 L 77.301562 396.400047 L 67.760156 396.343828 L 68.948437 394.024795 L 71.803125 394.01074 L 72.260156 390.553272 L 83.067187 386.400095 L 86.639062 366.11207 L 85.872656 348.606884 L 83.003906 347.833873 L 82.532812 344.671555 L 75.691406 340.743254 L 72.527344 329.000514 L 70.3125 328.037764 L 69.482812 329.401074 L 61.70625 325.557101 L 60.328125 326.913384 L 59.498437 325.086267 L 55.244531 329.035651 L 53.669531 326.920411 L 53.683594 330.862768 L 50.350781 330.391934 L 49.246875 332.21905 L 47.946094 327.897216 L 50.350781 328.276694 L 50.153906 324.8122 L 52.375781 323.940805 L 52.192969 322.303427 L 55.047656 323.266177 L 55.694531 319.506533 L 57.445312 319.984394 L 60.117187 316.323133 L 61.417969 319.302739 L 66.585938 318.143223 L 68.350781 316.498817 L 68.533594 318.614057 L 71.036719 319.281657 L 70.291406 315.817162 L 73.891406 314.362496 L 72.126562 313.217034 L 74.988281 309.745512 L 77.210156 310.890974 L 76.55625 309.063857 L 79.882031 305.880457 L 82.096875 307.039974 L 82.736719 305.100419 L 87.820312 302.591647 L 86.716406 301.628897 L 87.820312 299.80178 L 89.388281 300.947241 L 91.321875 299.120124 L 88.741406 298.157374 L 88.917187 296.611352 L 92.242969 295.838341 L 90.021094 292.858735 L 90.485156 291.699219 L 92.235937 290.54673 L 95.378906 292.17708 L 96.482812 290.539702 L 95.751562 288.508791 L 100.18125 289.366131 L 102.396094 288.016875 L 104.421094 283.870725 L 102.382031 282.437141 L 105.714844 281.073831 L 103.95 279.436453 L 105.067969 278.473703 L 104.224219 275.775192 L 107.282812 275.480042 L 103.95 273.652925 L 108.372656 272.493409 L 108.84375 271.333892 L 105.975 269.696514 L 106.150781 267.391536 L 109.940625 266.224992 L 106.839844 261.242585 L 112.317187 255.803398 L 116.107031 255.82448 L 116.950781 249.520927 L 119.060156 247.42677 L 123.69375 249.977706 L 127.06875 249.155504 L 134.2125 252.13511 Z M 140.540625 244.594739 " transform="matrix(0.555556,0,0,0.555862,0,0)"/>
<path id="PR-12" style="fill-rule:nonzero;fill:rgb(18.431373%,56.470588%,94.901961%);fill-opacity:1;stroke-width:0.75;stroke-linecap:butt;stroke-linejoin:miter;stroke:rgb(100%,100%,100%);stroke-opacity:1;stroke-miterlimit:4;" d="M 723.99375 472.457303 L 727.467187 476.498042 L 728.191406 481.979393 L 720.667969 478.486789 L 722.559375 472.661096 Z M 704.875781 435.563595 L 709.938281 433.926217 L 714.564844 429.337343 L 715.408594 426.399901 L 722.573437 420.988824 L 726.363281 415.978307 L 733.95 400.075363 L 741.951562 401.382454 L 742.366406 403.483638 L 744.897656 405.184263 L 744.897656 407.700062 L 747.84375 409.393659 L 748.258594 415.268543 L 750.375 416.118855 L 755.001562 423.694363 L 761.322656 427.924841 L 762.166406 437.573424 L 754.579687 450.939487 L 754.994531 452.612002 L 752.463281 453.862874 L 752.034375 462.654118 L 749.657812 466.912705 L 740.482031 464.649891 L 739.047656 465.53534 L 736.432031 463.413074 L 733.028906 464.846658 L 731.657812 466.905678 L 706.978125 468.817124 L 704.875781 458.191736 L 698.139844 448.522071 L 699.827344 443.075857 L 703.617187 439.32324 Z M 704.875781 435.563595 " transform="matrix(0.555556,0,0,0.555862,0,0)"/>
<path id="PR-13" style="fill-rule:nonzero;fill:rgb(18.431373%,56.470588%,94.901961%);fill-opacity:1;stroke-width:0.75;stroke-linecap:butt;stroke-linejoin:miter;stroke:rgb(100%,100%,100%);stroke-opacity:1;stroke-miterlimit:4;" d="M 346.507031 227.223073 L 349.038281 231.038936 L 360.414844 232.360083 L 364.197656 231.96655 L 368.416406 227.356593 L 372.20625 234.538568 L 373.035937 243.386031 L 378.520312 243.407113 L 381.0375 239.640441 L 383.139844 247.644618 L 386.514844 250.617197 L 390.304687 259.900357 L 393.250781 263.709193 L 405.471094 262.929154 L 408.832031 269.274872 L 415.146094 275.613562 L 421.467187 279.014811 L 423.154687 282.38795 L 424.828125 282.402004 L 426.100781 282.830674 L 425.671875 284.088574 L 422.725781 283.231234 L 421.467187 287.011961 L 418.935937 288.255806 L 410.934375 287.784972 L 407.144531 292.816571 L 402.089062 294.468004 L 398.714062 300.76453 L 398.714062 295.290206 L 389.032031 291.031618 L 385.664062 293.118748 L 385.235156 296.899475 L 381.016406 300.237477 L 377.655469 298.536853 L 371.327344 299.337973 L 366.278906 303.940902 L 370.06875 319.091918 L 370.061719 325.395471 L 363.740625 328.311831 L 362.896875 331.242246 L 356.997656 337.510662 L 350.261719 341.256252 L 347.308594 347.538723 L 347.7375 350.054523 L 356.153906 357.250552 L 358.671094 363.554106 L 365.414062 371.157723 L 364.148437 374.088138 L 365.407031 379.970049 L 360.773437 382.464766 L 359.085937 385.388153 L 359.507812 389.16888 L 354.874219 389.147798 L 350.240625 392.478772 L 350.240625 397.510371 L 343.919531 398.311492 L 338.449219 396.60384 L 326.228906 398.627724 L 328.739062 395.795692 L 329.603906 390.384615 L 329.603906 383.188586 L 328.169531 378.831614 L 322.875 374.334096 L 316.546875 372.556171 L 311.920312 372.949703 L 305.578125 363.673571 L 298.582031 358.866848 L 297.189844 356.568897 L 297.604687 353.132512 L 293.814844 348.501473 L 293.4 337.988524 L 296.346094 336.751706 L 296.346094 334.650521 L 292.141406 330.420043 L 291.7125 326.632289 L 293.414062 323.280232 L 287.922656 317.784827 L 281.19375 321.530416 L 277.81875 313.954908 L 275.301562 312.254284 L 276.989062 308.480585 L 274.886719 302.577592 L 275.301562 300.061792 L 281.200781 300.504517 L 285.834375 295.079385 L 289.624219 295.515082 L 292.999219 293.00631 L 296.782031 292.184107 L 299.742187 285.901636 L 308.158594 284.685901 L 317.425781 279.267796 L 318.276562 273.8005 L 321.651562 268.347259 L 324.16875 272.149068 L 328.802344 273.856719 L 330.911719 273.034517 L 332.599219 270.933332 L 330.911719 269.661378 L 331.333594 266.716908 L 329.653125 265.444954 L 331.340625 262.514539 L 330.496875 259.984685 L 331.7625 258.305143 L 330.496875 255.768261 L 331.7625 253.674104 L 315.3375 246.428883 L 314.49375 245.156929 L 317.861719 245.178011 L 317.861719 243.906056 L 315.3375 242.627074 L 314.500781 239.253935 L 317.861719 239.275017 L 318.705469 237.602503 L 322.509375 235.937015 L 328.394531 236.386767 L 330.082031 232.191426 L 337.66875 230.125378 L 342.302344 227.201991 Z M 346.507031 227.223073 " transform="matrix(0.555556,0,0,0.555862,0,0)"/>
<path id="PR-14" style="fill-rule:nonzero;fill:rgb(18.431373%,56.470588%,94.901961%);fill-opacity:1;stroke-width:0.75;stroke-linecap:butt;stroke-linejoin:miter;stroke:rgb(100%,100%,100%);stroke-opacity:1;stroke-miterlimit:4;" d="M 493.727344 148.980304 L 503.732812 151.060406 L 507.649219 156.576894 L 509.751562 155.965513 L 511.319531 157.827766 L 514.722656 158.516449 L 518.589844 168.460181 L 513.611719 183.034953 L 517.345312 189.591492 L 522.1125 192.416495 L 520.291406 205.796613 L 521.142187 209.324354 L 527.2875 220.975739 L 527.2875 224.489425 L 534.621094 231.80492 L 538.804688 239.380428 L 544.450781 244.756368 L 544.886719 248.136535 L 548.676562 251.530756 L 543.20625 250.244746 L 545.308594 252.781628 L 544.886719 254.039528 L 541.51875 251.917261 L 539.83125 252.324849 L 542.777344 259.921439 L 541.089844 262.858881 L 538.14375 262.001541 L 537.714844 265.360625 L 541.089844 267.489919 L 541.504687 269.591104 L 528.454687 267.841288 L 519.609375 261.474488 L 505.29375 257.602406 L 496.448437 253.76546 L 485.500781 251.601029 L 482.969531 249.05712 L 483.398437 241.481613 L 481.710937 240.202631 L 466.129687 238.43876 L 460.2375 224.50348 L 458.557031 223.231525 L 459.822656 214.812733 L 456.447656 203.828949 L 454.352344 202.556994 L 451.40625 202.964582 L 450.5625 200.849343 L 442.553906 197.848655 L 440.451562 195.311773 L 442.553906 189.001192 L 441.724219 182.662502 L 442.982812 181.826245 L 450.984375 183.140363 L 466.565625 175.213487 L 468.682031 170.582448 L 469.117969 162.163655 L 477.61875 151.608541 L 485.992969 149.60574 L 492.208594 150.294423 Z M 493.727344 148.980304 " transform="matrix(0.555556,0,0,0.555862,0,0)"/>
<path id="PR-28" style="fill-rule:nonzero;fill:rgb(18.431373%,56.470588%,94.901961%);fill-opacity:1;stroke-width:0.75;stroke-linecap:butt;stroke-linejoin:miter;stroke:rgb(100%,100%,100%);stroke-opacity:1;stroke-miterlimit:4;" d="M 365.414062 371.157723 L 358.671094 363.561133 L 356.153906 357.250552 L 347.730469 350.06155 L 347.308594 347.538723 L 350.261719 341.256252 L 356.997656 337.510662 L 362.896875 331.249273 L 363.740625 328.311831 L 370.054687 325.402499 L 370.06875 319.091918 L 366.278906 303.940902 L 371.327344 299.345 L 377.655469 298.54388 L 381.016406 300.237477 L 385.235156 296.899475 L 385.664062 293.125775 L 389.032031 291.031618 L 398.714062 295.290206 L 398.714062 300.76453 L 399.557812 304.552284 L 404.191406 309.626047 L 403.7625 319.710327 L 412.178906 322.69696 L 413.022656 327.742614 L 434.010937 345.261854 L 437.322656 350.202098 L 438.391406 354.629342 L 432.808594 358.522507 L 431.964844 367.756475 L 424.792969 371.073395 L 419.744531 375.662269 L 421.003125 382.387465 L 416.376562 388.655882 L 412.572656 390.728957 L 408.677344 387.925035 L 396.991406 380.996045 L 383.5125 383.856186 L 379.307812 379.639762 L 373.8375 377.503441 L 370.4625 372.872402 Z M 365.414062 371.157723 " transform="matrix(0.555556,0,0,0.555862,0,0)"/>
<path id="PR-15" style="fill-rule:nonzero;fill:rgb(18.431373%,56.470588%,94.901961%);fill-opacity:1;stroke-width:0.75;stroke-linecap:butt;stroke-linejoin:miter;stroke:rgb(100%,100%,100%);stroke-opacity:1;stroke-miterlimit:4;" d="M 128.903906 92.107776 L 137.608594 94.026248 L 140.421094 92.915924 L 166.408594 105.719797 L 180.541406 108.348034 L 184.858594 107.863146 L 191.271094 111.868748 L 196.635937 112.845553 L 203.23125 110.983299 L 205.045312 112.943936 L 204.201562 116.752772 L 205.889062 124.363417 L 224.022656 132.0865 L 218.524219 149.753315 L 220.626562 156.520675 L 220.626562 163.288035 L 218.932031 162.009053 L 217.680469 163.288035 L 213.883594 162.402586 L 213.039844 164.93244 L 215.985937 171.678718 L 216.400781 177.188179 L 215.557031 180.975932 L 212.189062 185.592916 L 205.453125 183.020898 L 203.350781 187.223267 L 200.819531 187.630855 L 197.444531 184.665303 L 192.403125 184.651248 L 187.340625 179.542348 L 184.394531 182.472763 L 181.863281 182.037066 L 174.290625 187.047583 L 168.398437 185.747519 L 166.296094 187.848703 L 166.296094 185.733464 L 160.81875 181.488931 L 161.247656 179.387746 L 159.145312 179.788306 L 159.58125 183.140363 L 158.301562 183.583088 L 151.14375 180.589427 L 148.197656 176.780591 L 138.086719 171.664663 L 135.984375 164.897303 L 130.099219 164.440524 L 125.880469 166.949296 L 105.665625 167.680143 L 92.186719 162.121491 L 87.975 162.515024 L 82.51875 158.284546 L 82.6875 153.428631 L 77.639062 149.760342 L 78.285937 147.434282 L 76.521094 145.796904 L 76.717969 144.412512 L 82.694531 143.098393 L 84.536719 137.56785 L 83.207812 134.461752 L 81.907031 135.290982 L 78.110156 127.891158 L 79.488281 127.202476 L 78.897656 123.611488 L 77.329687 123.548242 L 75.564844 126.794888 L 73.06875 127.827912 L 73.342969 130.322629 L 71.950781 129.619892 L 72.414844 124.925607 L 79.685156 118.495561 L 80.2125 116.633307 L 86.498437 115.459736 L 92.453906 112.416883 L 92.777344 110.140014 L 96.1875 109.310784 L 99.984375 106.134412 L 101.685937 102.170974 L 99.984375 96.169597 L 103.457812 95.614435 L 105.285937 99.149203 L 107.247656 100.111953 L 110.046094 98.172398 L 110.650781 94.988999 L 114.1875 95.052245 L 118.750781 92.620774 L 123.089062 93.597579 Z M 128.903906 92.107776 " transform="matrix(0.555556,0,0,0.555862,0,0)"/>
<path id="PR-29" style="fill-rule:nonzero;fill:rgb(18.431373%,56.470588%,94.901961%);fill-opacity:1;stroke-width:0.75;stroke-linecap:butt;stroke-linejoin:miter;stroke:rgb(100%,100%,100%);stroke-opacity:1;stroke-miterlimit:4;" d="M 548.655469 296.976776 L 556.664062 301.649979 L 564.236719 310.103908 L 574.347656 313.947881 L 576.457031 316.477735 L 578.559375 319.850874 L 585.295312 321.994223 L 589.507031 325.796032 L 595.399219 328.353995 L 598.345312 331.727134 L 616.028906 341.495183 L 626.561719 346.590028 L 633.311719 345.374292 L 637.516406 346.653274 L 635.828906 352.106516 L 632.453906 352.514103 L 630.773437 356.69539 L 626.139844 357.932208 L 622.35 362.949752 L 620.6625 363.364367 L 620.233594 366.294781 L 618.553125 367.545654 L 618.13125 365.859084 L 614.763281 364.58713 L 609.285937 370.855546 L 601.284375 382.970737 L 597.051562 396.800607 L 591.173437 405.704288 L 581.252344 402.134383 L 577.026562 402.134383 L 575.332031 405.697261 L 567.435937 408.353608 L 562.879687 407.995212 L 557.8875 409.583398 L 555.363281 408.726058 L 550.300781 412.471648 L 548.198437 419.175762 L 540.611719 424.579812 L 539.353125 421.220727 L 539.767969 417.454056 L 537.665625 412.823017 L 533.446875 412.801935 L 532.617188 411.544035 L 533.032031 404.411252 L 530.514844 403.560939 L 528.405469 404.804784 L 522.098437 392.183623 L 516.192187 392.577156 L 509.871094 395.472433 L 500.182031 391.649542 L 500.596875 396.259499 L 498.923437 398.346629 L 495.970312 398.754216 L 493.446094 402.092219 L 485.859375 401.20677 L 481.647656 403.701487 L 476.170312 398.641778 L 465.222656 398.578532 L 456.384375 384.263774 L 453.853125 383.828077 L 451.750781 385.078949 L 445.858594 378.747286 L 440.374219 377.875892 L 431.964844 367.756475 L 432.808594 358.522507 L 438.391406 354.629342 L 443.75625 351.0243 L 459.766406 351.951913 L 463.141406 346.098112 L 467.775 346.119194 L 472.401562 343.202834 L 474.089062 343.216889 L 475.776562 345.746743 L 480.410156 346.196495 L 484.192969 340.335666 L 493.460156 346.259741 L 497.671875 346.709493 L 503.992969 337.91825 L 507.789844 328.698337 L 508.21875 322.401811 L 506.53125 321.129856 L 505.6875 317.342102 L 509.90625 308.958446 L 517.907812 309.422253 L 519.595312 308.164353 L 519.595312 296.815146 L 524.650781 298.529825 L 529.284375 296.449723 L 536.449219 297.335172 L 541.490625 295.255069 Z M 548.655469 296.976776 " transform="matrix(0.555556,0,0,0.555862,0,0)"/>
<path id="PR-16" style="fill-rule:nonzero;fill:rgb(18.431373%,56.470588%,94.901961%);fill-opacity:1;stroke-width:0.75;stroke-linecap:butt;stroke-linejoin:miter;stroke:rgb(100%,100%,100%);stroke-opacity:1;stroke-miterlimit:4;" d="M 104.301562 693.264384 L 105.799219 695.44287 L 103.183594 694.894735 L 102.923437 693.671972 Z M 132.897656 659.364338 L 138.529687 662.16826 L 141.735937 667.895568 L 145.0125 667.895568 L 143.310937 671.036804 L 138.213281 675.40783 L 127.082812 678.408518 L 125.128125 675.27431 L 128.861719 665.112729 L 131.210156 663.679145 Z M 86.055469 493.616722 L 94.95 496.638493 L 97.896094 500.433274 L 109.434375 509.379119 L 119.376562 511.016497 L 129.76875 515.795111 L 138.951562 516.666505 L 156.157031 532.126725 L 161.226562 532.688915 L 167.632031 537.355091 L 166.239844 540.559573 L 161.226562 540.854722 L 165.121875 547.263686 L 165.121875 554.82514 L 160.671094 560.650832 L 157.605469 561.529253 L 154.821094 560.074587 L 153.991406 570.840522 L 155.664844 572.871433 L 160.678125 572.871433 L 163.4625 574.909371 L 164.580469 578.521441 L 166.535156 578.198182 L 169.066406 579.884751 L 173.489062 585.387184 L 177.391406 584.227667 L 178.776562 579.575547 L 181.849219 579.575547 L 187.417969 586.560755 L 187.70625 590.123633 L 189.288281 591.28315 L 190.132031 596.715309 L 188.873437 598.373769 L 189.210937 601.149581 L 187.825781 602.723713 L 187.889062 607.994242 L 185.603906 609.842441 L 184.415625 608.682925 L 182.327344 609.708921 L 178.080469 615.450285 L 173.432812 624.459377 L 167.674219 645.68907 L 164.1375 649.174647 L 159.946875 659.687597 L 158.245312 659.687597 L 156.023437 663.1029 L 151.446094 658.183739 L 150.792187 654.634916 L 144.246094 648.556238 L 138.353906 632.857087 L 129.909375 625.28158 L 124.410937 623.16634 L 113.554687 622.688479 L 99.485156 625.555647 L 93.199219 622.477658 L 99.942187 618.577466 L 101.636719 612.084173 L 105.820312 612.569062 L 107.6625 606.07577 L 103.478906 599.582477 L 101.453906 593.363252 L 96.679687 589.266294 L 100.019531 587.692162 L 101.517187 583.321136 L 97.403906 572.379517 L 90.984375 566.631126 L 86.083594 564.108299 L 82.019531 559.449151 L 78.173437 558.226388 L 79.228125 555.183536 L 81.808594 553.356419 L 82.272656 549.238378 L 84.297656 545.97065 L 82.905469 543.489987 L 84.009375 541.852609 L 81.7875 541.002297 L 80.49375 537.938363 L 82.244531 533.138667 L 80.49375 531.522371 L 76.232812 525.584241 L 76.971094 523.953891 L 74.383594 524.628519 L 71.789062 521.662967 L 73.174219 517.734666 L 75.382031 516.589204 L 76.014844 511.121908 L 78.686719 509.491557 L 78.686719 506.526006 Z M 86.055469 493.616722 " transform="matrix(0.555556,0,0,0.555862,0,0)"/>
<path id="PR-17" style="fill-rule:nonzero;fill:rgb(18.431373%,56.470588%,94.901961%);fill-opacity:1;stroke-width:0.75;stroke-linecap:butt;stroke-linejoin:miter;stroke:rgb(100%,100%,100%);stroke-opacity:1;stroke-miterlimit:4;" d="M 407.144531 441.431452 L 412.530469 441.642273 L 415.764844 443.342897 L 416.355469 445.268397 L 419.723437 446.961994 L 419.723437 448.641536 L 422.669531 449.491848 L 423.513281 454.530475 L 428.990625 454.143969 L 428.990625 458.753926 L 430.678125 459.182595 L 429.834375 460.862137 L 431.514844 460.869165 L 433.202344 457.945778 L 433.202344 460.88322 L 435.733594 460.061017 L 439.108594 461.754614 L 437.00625 463.841744 L 435.747656 461.733532 L 435.747656 466.343488 L 431.114062 469.674463 L 425.636719 469.224711 L 423.534375 472.984356 L 426.480469 472.162153 L 427.739062 478.444624 L 429.841406 476.779137 L 433.216406 477.636476 L 434.475 485.176847 L 440.789062 490.651171 L 442.898437 496.526055 L 447.953906 498.648321 L 446.68125 506.59628 L 448.783594 508.317986 L 446.505469 509.414256 L 441.864844 507.55903 L 435.248437 510.911087 L 425.692969 507.010895 L 412.804687 509.955364 L 398.601562 507.15847 L 371.777344 517.840076 L 366.80625 514.558293 L 358.038281 514.347472 L 359.599219 510.925142 L 361.490625 510.166185 L 361.490625 511.599769 L 361.230469 510.573773 L 359.796094 511.121908 L 359.008594 513.377695 L 360.323437 513.989076 L 361.371094 511.866809 L 364.057031 513.715009 L 365.041406 512.414945 L 367.727344 513.300394 L 372.761719 511.178127 L 368.957812 508.92234 L 365.554687 508.92234 L 361.504687 503.785331 L 355.6125 501.663064 L 353.650781 498.859142 L 354.867187 497.706653 L 364.134375 497.348257 L 373.823437 494.467034 L 376.354687 488.62026 L 375.096094 482.752404 L 375.517969 476.47696 L 380.165625 470.222598 L 380.165625 466.870541 L 378.323437 463.778497 L 378.935156 458.880418 L 380.545312 456.624632 L 385.122656 455.500252 L 392.927344 450.988679 L 400.464844 449.576177 Z M 407.144531 441.431452 " transform="matrix(0.555556,0,0,0.555862,0,0)"/>
<path id="PR-18" style="fill-rule:nonzero;fill:rgb(18.431373%,56.470588%,94.901961%);fill-opacity:1;stroke-width:0.75;stroke-linecap:butt;stroke-linejoin:miter;stroke:rgb(100%,100%,100%);stroke-opacity:1;stroke-miterlimit:4;" d="M 252.513281 87.104286 L 257.948437 87.518901 L 268.544531 93.611633 L 271.553906 91.046642 L 278.036719 94.230042 L 282.417187 93.885701 L 285.103125 93.815427 L 287.915625 94.714931 L 291.185156 93.126745 L 293.477344 93.752181 L 294.328125 97.757783 L 296.950781 99.556791 L 299.960156 99.486517 L 307.807031 109.584852 L 306.309375 111.798474 L 306.95625 112.838526 L 309.31875 111.039518 L 315.330469 110.624903 L 319.260937 113.527208 L 319.33125 114.918628 L 323.641406 116.359239 L 325.617187 118.446369 L 324.759375 119.198298 L 325.617187 120.371869 L 328.035937 119.05775 L 335.622656 123.892583 L 337.844531 126.808943 L 340.530469 126.808943 L 342.358594 129.296633 L 345.114844 127.560872 L 352.701562 131.299434 L 359.894531 128.87499 L 362.25 131.36268 L 368.078906 131.36268 L 369.260156 131.025366 L 368.669531 129.149058 L 370.757812 125.080209 L 377.114062 123.76609 L 385.551562 124.384499 L 393.932812 131.988116 L 396.871875 132.051363 L 403.410937 141.172893 L 400.879687 146.98453 L 402.560156 152.908605 L 396.667969 154.567065 L 398.341406 157.103947 L 396.667969 157.525589 L 394.980469 155.396295 L 394.551562 157.511535 L 392.878125 155.817938 L 391.6125 157.919122 L 389.925 157.905067 L 387.407812 154.510846 L 385.720312 155.768746 L 381.916406 155.318994 L 381.501562 158.277518 L 380.657812 157.005564 L 377.711719 156.984482 L 376.446094 158.249409 L 373.071094 156.548785 L 370.96875 158.642942 L 371.383594 160.751153 L 368.866406 161.587411 L 369.703125 165.38922 L 368.015625 168.333689 L 369.288281 173.81504 L 365.484375 178.439051 L 364.640625 188.136825 L 362.116406 190.230982 L 350.746875 185.108028 L 341.486719 183.365239 L 339.799219 178.720146 L 342.330469 169.872683 L 341.486719 166.077902 L 324.217969 157.110974 L 323.374219 159.226214 L 325.476562 168.094758 L 324.632812 170.617585 L 322.945312 172.725797 L 316.63125 175.220514 L 314.528906 174.356147 L 312.841406 170.554339 L 309.051562 170.104587 L 299.791406 161.622548 L 298.103906 163.295062 L 287.578125 159.444062 L 278.303906 158.959173 L 274.521094 156.408237 L 272.833594 157.244494 L 269.04375 153.421604 L 268.628906 151.320419 L 261.885937 148.319731 L 256.8375 143.224886 L 247.985156 144.440621 L 242.936719 142.3043 L 241.25625 137.223509 L 230.301562 135.059078 L 224.008594 132.079472 L 205.875 124.35639 L 204.1875 116.738717 L 205.045312 112.929881 L 203.224219 110.976272 L 205.340625 109.732427 L 206.451562 105.305182 L 205.664062 102.599643 L 210.832031 106.415507 L 213.848437 107.090135 L 215.817187 104.539198 L 224.578125 105.993864 L 226.483594 104.201884 L 234.3375 101.847714 L 236.75625 99.493545 L 236.3625 95.277121 L 240.4125 92.571582 L 241.066406 90.632027 Z M 252.513281 87.104286 " transform="matrix(0.555556,0,0,0.555862,0,0)"/>
<path id="PR-19" style="fill-rule:nonzero;fill:rgb(18.431373%,56.470588%,94.901961%);fill-opacity:1;stroke-width:0.75;stroke-linecap:butt;stroke-linejoin:miter;stroke:rgb(100%,100%,100%);stroke-opacity:1;stroke-miterlimit:4;" d="M 381.0375 239.640441 L 385.685156 221.966598 L 388.638281 215.677099 L 388.638281 212.718576 L 385.270312 207.644812 L 385.270312 204.271673 L 387.379687 200.912589 L 386.964844 195.002569 L 392.442187 182.388434 L 397.490625 186.632968 L 402.117187 187.497334 L 403.389844 193.414382 L 407.179687 195.965319 L 409.282031 195.136089 L 413.078906 185.452369 L 415.610156 184.623139 L 417.7125 181.685697 L 425.292187 180.041292 L 429.503906 182.170586 L 429.503906 188.080606 L 435.396094 194.862021 L 437.505469 196.984288 L 437.083594 200.343372 L 429.489844 203.674347 L 428.23125 206.204201 L 429.075 208.31944 L 432.45 209.598422 L 432.45 210.856322 L 421.073437 215.845756 L 414.330469 220.877355 L 410.526562 235.592674 L 410.955469 238.551198 L 408.839062 243.168182 L 408.839062 247.370551 L 403.36875 254.503334 L 405.471094 262.936182 L 393.250781 263.709193 L 390.304687 259.900357 L 386.514844 250.617197 L 383.139844 247.651646 Z M 381.0375 239.640441 " transform="matrix(0.555556,0,0,0.555862,0,0)"/>
<path id="PR-20" style="fill-rule:nonzero;fill:rgb(18.431373%,56.470588%,94.901961%);fill-opacity:1;stroke-width:0.75;stroke-linecap:butt;stroke-linejoin:miter;stroke:rgb(100%,100%,100%);stroke-opacity:1;stroke-miterlimit:4;" d="M 671.575781 228.495028 L 673.474219 230.019967 L 675.759375 229.261011 L 676.286719 230.785951 L 667.778906 243.189264 L 667.385156 246.562403 L 672.679687 247.876522 L 675.499219 247.539208 L 678.178125 244.854751 L 682.495312 245.965076 L 686.742187 243.140073 L 691.319531 244.37689 L 691.122656 248.031124 L 688.436719 253.055696 L 677.580469 260.982572 L 674.697656 273.315611 L 672.082031 274.278362 L 661.155469 273.10479 L 657.499219 270.420334 L 656.38125 271.593905 L 653.9625 269.879226 L 652.710937 270.841976 L 648.464062 268.494834 L 646.36875 270.968469 L 631.905469 270.420334 L 630.7875 273.182091 L 628.832812 271.04577 L 624.902344 271.671206 L 622.546875 269.197571 L 615.550781 267.335317 L 609.721875 267.546138 L 607.957031 265.957952 L 605.932031 267.272071 L 602.922656 265.824432 L 596.060156 266.302293 L 580.682812 262.929154 L 578.988281 264.102726 L 579.185156 274.22917 L 575.908594 285.24809 L 577.933594 293.097666 L 576.696094 294.475031 L 578.594531 297.918444 L 581.997656 298.536853 L 576.457031 316.526927 L 574.354687 313.997073 L 564.250781 310.160127 L 556.671094 301.706198 L 548.669531 297.025967 L 549.928125 295.768068 L 555.405469 295.803204 L 553.717969 290.743496 L 551.186719 287.784972 L 551.186719 285.255118 L 553.717969 285.269173 L 557.507812 282.760401 L 557.507812 280.230546 L 559.610156 279.822959 L 560.453906 278.150444 L 562.985156 279.007783 L 563.407031 277.328241 L 565.094531 277.342296 L 566.367188 272.289615 L 568.476562 269.78787 L 570.164062 269.794898 L 570.592969 268.108328 L 563.428125 268.066164 L 561.325781 265.529282 L 557.535937 266.344458 L 545.744531 264.180027 L 541.532812 269.619213 L 541.117969 267.518029 L 537.742969 265.395762 L 538.171875 262.029651 L 541.117969 262.88699 L 542.805469 259.949548 L 539.859375 252.352958 L 541.539844 251.938343 L 544.914844 254.06061 L 545.34375 252.80271 L 543.241406 250.258801 L 548.711719 251.551838 L 544.928906 248.157617 L 544.485937 244.77745 L 551.925 248.916573 L 559.448437 250.357184 L 568.610156 248.220863 L 572.540625 245.817502 L 587.847656 244.784478 L 591.060937 242.992498 L 591.1875 240.434534 L 593.873437 240.778875 L 593.873437 239.127443 L 595.701562 239.605304 L 597.923437 237.539256 L 599.814844 238.853375 L 602.233594 237.60953 L 611.852344 238.719855 L 617.744531 237.483037 L 620.683594 239.197716 L 623.235937 237.883598 L 626.315625 240.919423 L 629.655469 238.719855 L 634.563281 242.233541 L 637.3125 241.481613 L 639.267187 243.484414 L 643.33125 243.54766 L 644.702344 246.442938 L 649.089844 248.445739 L 651.051562 242.444363 L 658.771875 236.731108 L 664.003125 235.831605 L 663.609375 234.383966 L 665.374219 232.873081 L 667.596094 233.983406 L 670.408594 228.607465 Z M 671.575781 228.495028 " transform="matrix(0.555556,0,0,0.555862,0,0)"/>
<path id="PR-21" style="fill-rule:nonzero;fill:rgb(18.431373%,56.470588%,94.901961%);fill-opacity:1;stroke-width:0.75;stroke-linecap:butt;stroke-linejoin:miter;stroke:rgb(100%,100%,100%);stroke-opacity:1;stroke-miterlimit:4;" d="M 431.964844 367.756475 L 440.374219 377.868864 L 445.865625 378.747286 L 451.750781 385.071922 L 449.641406 387.580694 L 449.641406 390.10352 L 453.43125 395.577844 L 454.275 403.9615 L 458.472656 410.279108 L 458.057812 411.95865 L 455.955469 410.27208 L 454.275 410.672641 L 453.417187 417.390809 L 455.533594 419.077379 L 458.479687 427.060474 L 460.160156 427.482117 L 461.840625 436.301469 L 462.684375 437.973984 L 465.208594 438.409681 L 468.583594 438.009121 L 468.583594 436.329579 L 469.842187 435.929019 L 474.060937 440.560057 L 476.163281 446.020326 L 471.944531 447.664731 L 472.373437 448.922631 L 475.734375 448.943713 L 475.319531 453.55367 L 478.265625 450.215668 L 480.367969 450.229722 L 482.055469 452.759577 L 484.150781 453.188246 L 487.525781 449.442657 L 487.110937 454.038558 L 488.369531 453.637998 L 488.784375 456.139743 L 490.471875 457.411697 L 489.31875 461.143232 L 487.441406 462.935212 L 486.386719 462.309776 L 486.717187 463.883908 L 481.942969 471.494553 L 478.272656 474.649843 L 470.882812 489.112176 L 465.257812 492.464233 L 464.79375 495.134635 L 459.365625 500.826807 L 455.632031 508.156357 L 453.803906 509.182353 L 451.314844 507.26388 L 448.755469 508.282849 L 446.653125 506.56817 L 447.91875 498.627239 L 442.863281 496.504972 L 440.760937 490.637116 L 434.439844 485.155765 L 433.18125 477.615394 L 429.813281 476.758055 L 427.710937 478.416515 L 426.445312 472.127016 L 423.492187 472.949219 L 425.601562 469.196602 L 431.078906 469.646354 L 435.7125 466.315379 L 435.719531 461.719477 L 436.978125 463.820661 L 439.080469 461.726504 L 435.719531 460.039935 L 433.195312 460.862137 L 433.195312 457.924696 L 431.507812 460.848083 L 429.820312 460.841055 L 430.664062 459.175568 L 428.976562 458.739871 L 428.976562 454.136942 L 423.50625 454.523447 L 422.6625 449.498876 L 419.716406 448.634509 L 419.716406 446.954967 L 416.355469 445.268397 L 415.750781 443.342897 L 412.523437 441.642273 L 407.144531 441.438479 L 405.794531 437.130699 L 401.498437 432.338031 L 404.985937 418.789256 L 404.985937 412.584086 L 402.032812 407.791418 L 402.292969 404.123129 L 405.527344 398.473122 L 405.794531 392.823114 L 408.677344 387.925035 L 412.572656 390.728957 L 416.376562 388.655882 L 421.010156 382.387465 L 419.744531 375.662269 L 424.792969 371.073395 Z M 431.964844 367.756475 " transform="matrix(0.555556,0,0,0.555862,0,0)"/>
<path id="PR-31" style="fill-rule:nonzero;fill:rgb(18.431373%,56.470588%,94.901961%);fill-opacity:1;stroke-width:0.75;stroke-linecap:butt;stroke-linejoin:miter;stroke:rgb(100%,100%,100%);stroke-opacity:1;stroke-miterlimit:4;" d="M 365.414062 371.157723 L 370.4625 372.865375 L 373.8375 377.496414 L 379.314844 379.632735 L 383.5125 383.849159 L 396.998437 380.989018 L 408.677344 387.925035 L 405.801562 392.816086 L 405.527344 398.466094 L 402.292969 404.116102 L 402.032812 407.784391 L 404.985937 412.584086 L 404.985937 418.789256 L 401.498437 432.331004 L 405.801562 437.130699 L 407.144531 441.431452 L 400.408594 449.534012 L 392.878125 450.946514 L 385.080469 455.458088 L 380.503125 456.589495 L 378.885937 458.845281 L 378.274219 463.736333 L 374.224219 460.946466 L 374.646094 458.009024 L 372.54375 454.64994 L 372.54375 452.141168 L 370.434375 450.869213 L 370.448437 448.353414 L 371.707031 447.517156 L 370.448437 445.415972 L 364.542187 444.551605 L 361.18125 439.920566 L 353.179687 437.777218 L 351.921094 434.839776 L 346.429687 435.654951 L 342.646875 427.243186 L 332.964844 420.475826 L 332.121094 418.803311 L 335.08125 414.200382 L 334.652344 407.074626 L 332.135156 402.858202 L 326.228906 398.627724 L 338.449219 396.60384 L 343.926562 398.311492 L 350.247656 397.517399 L 350.247656 392.478772 L 354.874219 389.147798 L 359.507812 389.16888 L 359.092969 385.395181 L 360.780469 382.471794 L 365.407031 379.970049 L 364.148437 374.095165 Z M 365.414062 371.157723 " transform="matrix(0.555556,0,0,0.555862,0,0)"/>
<path id="PR-22" style="fill-rule:nonzero;fill:rgb(18.431373%,56.470588%,94.901961%);fill-opacity:1;stroke-width:0.75;stroke-linecap:butt;stroke-linejoin:miter;stroke:rgb(100%,100%,100%);stroke-opacity:1;stroke-miterlimit:4;" d="M 178.439062 271.333892 L 181.8 275.986013 L 188.55 274.756223 L 194.435156 276.892544 L 197.810156 275.641672 L 201.185156 276.513066 L 205.389844 279.907287 L 211.703906 280.778681 L 218.86875 283.758287 L 221.4 287.560096 L 225.597656 289.696417 L 226.441406 298.94444 L 232.7625 304.025231 L 243.288281 307.454589 L 245.8125 313.357582 L 249.602344 314.207894 L 257.189062 308.375174 L 260.55 309.654156 L 264.353906 308.403284 L 275.301562 312.261312 L 277.81875 313.954908 L 281.19375 321.537444 L 281.608594 325.739813 L 280.35 327.412327 L 273.192187 328.642118 L 275.2875 333.687771 L 273.607031 336.203571 L 267.700781 337.433361 L 266.027344 340.356748 L 261.386719 342.008181 L 261.808594 346.63922 L 259.284375 351.670818 L 256.753125 353.329278 L 261.372656 365.528798 L 261.372656 368.473267 L 254.214844 381.43877 L 252.527344 381.43877 L 249.58125 373.863262 L 247.89375 372.591307 L 244.947656 372.570225 L 241.164844 376.336897 L 241.579687 383.048038 L 244.110937 388.100719 L 240.307031 390.180822 L 240.307031 392.282006 L 242.838281 394.81186 L 243.253125 397.742275 L 238.753125 400.525114 L 234.548437 400.630525 L 231.757031 407.552487 L 229.282031 407.552487 L 223.565625 413.490617 L 217.553906 413.687384 L 216.295312 410.180725 L 210.817969 408.473073 L 195.658594 413.841986 L 181.335937 412.506785 L 178.389844 415.830732 L 176.273437 415.823705 L 171.646875 419.147652 L 163.223437 417.432973 L 162.794531 414.917174 L 159.855469 414.059834 L 156.4875 415.711267 L 155.221875 413.195468 L 148.900781 409.801247 L 140.484375 410.588312 L 135.850781 409.30933 L 129.529687 405.078852 L 132.904687 396.702224 L 131.217187 390.82734 L 122.371875 388.676964 L 118.596094 382.359356 L 121.542187 377.334784 L 121.127344 375.240627 L 117.752344 372.275076 L 112.689844 370.581479 L 111.016406 366.793725 L 107.641406 364.664431 L 111.43125 358.810629 L 110.172656 354.186618 L 110.601562 345.360238 L 106.382812 347.44034 L 106.811719 342.408741 L 110.601562 336.119242 L 111.030469 331.930928 L 109.342969 331.502258 L 108.499219 329.387019 L 119.875781 316.421516 L 129.979687 318.164305 L 133.354687 316.927487 L 133.783594 311.460191 L 140.097656 298.466579 L 139.682812 293.420925 L 143.901562 287.124399 L 146.425781 286.302196 L 154.434375 287.60226 L 158.639062 291.839766 L 161.578125 291.853821 L 162.007031 293.54039 L 163.6875 293.547418 L 167.055469 290.624031 L 172.117969 290.645113 L 175.057031 288.979625 L 176.329687 287.307111 L 175.485937 284.362642 L 176.758594 273.006407 Z M 178.439062 271.333892 " transform="matrix(0.555556,0,0,0.555862,0,0)"/>
<path id="PR-23" style="fill-rule:nonzero;fill:rgb(18.431373%,56.470588%,94.901961%);fill-opacity:1;stroke-width:0.75;stroke-linecap:butt;stroke-linejoin:miter;stroke:rgb(100%,100%,100%);stroke-opacity:1;stroke-miterlimit:4;" d="M 618.553125 367.545654 L 616.865625 375.514694 L 617.709375 377.622906 L 621.492187 379.316503 L 624.023437 386.470369 L 624.016406 393.18151 L 625.696875 395.697309 L 622.750781 399.463981 L 623.165625 401.136496 L 625.696875 402.40845 L 629.486719 408.726058 L 631.589062 415.865869 L 635.378906 418.409778 L 638.746875 429.323288 L 643.373437 436.898796 L 645.060937 433.132124 L 652.647656 427.31346 L 653.069531 424.790633 L 655.59375 424.811715 L 654.757031 418.929804 L 656.859375 412.239745 L 662.336719 411.846212 L 666.977344 407.67898 L 670.338281 408.957962 L 671.610937 411.902431 L 676.659375 410.679668 L 680.449219 411.944595 L 687.192187 416.603743 L 689.294531 421.649397 L 695.608594 425.029563 L 700.657031 422.970543 L 707.407031 423.00568 L 708.24375 424.69225 L 706.134375 425.514452 L 704.875781 435.563595 L 703.603125 439.330267 L 699.813281 443.082884 L 698.125781 448.515043 L 704.861719 458.198763 L 706.964062 468.817124 L 683.423437 462.028681 L 680.020312 459.421526 L 681.201562 458.873391 L 680.217187 455.380787 L 677.664844 454.010449 L 671.442187 456.477057 L 663.658594 456.617604 L 656.978906 458.746898 L 653.189062 457.165739 L 653.519531 455.654854 L 652.401562 455.380787 L 651.023437 456.343537 L 652.071094 458.26201 L 648.738281 460.869165 L 627.932812 460.658344 L 606.930469 466.013202 L 602.114062 465.935901 L 602.092969 455.106719 L 604.202344 454.277489 L 604.617187 450.089175 L 593.669531 449.182644 L 586.511719 444.959193 L 584.409375 439.491897 L 581.463281 437.805327 L 584.83125 434.895995 L 590.7375 423.188392 L 588.621094 419.400638 L 590.322656 412.696524 L 587.3625 413.947396 L 586.51875 411.417542 L 591.173437 405.704288 L 597.051562 396.800607 L 601.277344 382.970737 L 609.285937 370.848519 L 614.763281 364.58713 L 618.13125 365.859084 Z M 618.553125 367.545654 " transform="matrix(0.555556,0,0,0.555862,0,0)"/>
<path id="PR-24" style="fill-rule:nonzero;fill:rgb(18.431373%,56.470588%,94.901961%);fill-opacity:1;stroke-width:0.75;stroke-linecap:butt;stroke-linejoin:miter;stroke:rgb(100%,100%,100%);stroke-opacity:1;stroke-miterlimit:4;" d="M 424.828125 282.402004 L 423.998437 280.715435 L 425.257031 279.886205 L 432 279.4997 L 432.84375 281.600884 L 435.360937 280.778681 L 436.633594 282.886893 L 440.838281 284.172902 L 442.103906 281.242488 L 443.3625 282.929057 L 447.996094 278.747771 L 449.683594 279.17644 L 448.839844 282.12091 L 453.473437 281.298707 L 453.473437 284.243176 L 455.582812 280.476504 L 458.107031 279.647274 L 458.107031 283.006359 L 459.372656 283.442056 L 461.903906 280.511641 L 464.85 280.947338 L 466.108594 282.633908 L 470.327344 280.553805 L 471.585937 283.08366 L 474.539062 283.104742 L 478.74375 286.913578 L 488.432812 289.485596 L 491.378906 291.607863 L 495.597656 288.691503 L 497.7 288.698531 L 505.701562 293.793376 L 512.866406 295.52211 L 509.90625 308.958446 L 505.694531 317.342102 L 506.538281 321.129856 L 508.21875 322.401811 L 507.796875 328.698337 L 503.992969 337.91825 L 497.678906 346.709493 L 493.460156 346.259741 L 484.2 340.335666 L 480.410156 346.196495 L 475.776562 345.746743 L 474.096094 343.216889 L 472.408594 343.209862 L 467.775 346.119194 L 463.141406 346.098112 L 459.773437 351.958941 L 443.763281 351.0243 L 438.398437 354.629342 L 437.322656 350.202098 L 434.017969 345.268882 L 413.029687 327.749641 L 412.185937 322.69696 L 403.7625 319.710327 L 404.191406 309.626047 L 399.557812 304.559311 L 398.714062 300.76453 L 402.089062 294.468004 L 407.144531 292.816571 L 410.934375 287.791999 L 418.942969 288.262833 L 421.467187 287.011961 L 422.725781 283.238262 L 425.671875 284.088574 L 426.100781 282.830674 Z M 424.828125 282.402004 " transform="matrix(0.555556,0,0,0.555862,0,0)"/>
<path id="PR-25" style="fill-rule:nonzero;fill:rgb(18.431373%,56.470588%,94.901961%);fill-opacity:1;stroke-width:0.75;stroke-linecap:butt;stroke-linejoin:miter;stroke:rgb(100%,100%,100%);stroke-opacity:1;stroke-miterlimit:4;" d="M 287.578125 159.437035 L 298.096875 163.288035 L 299.784375 161.61552 L 309.044531 170.097559 L 312.834375 170.547311 L 314.521875 174.34912 L 316.624219 175.213487 L 322.945312 172.718769 L 324.625781 170.617585 L 325.469531 168.087731 L 323.367187 159.219186 L 324.210937 157.103947 L 341.479687 166.070875 L 342.323437 169.872683 L 339.792187 178.720146 L 341.479687 183.358212 L 350.739844 185.101 L 362.109375 190.223955 L 362.109375 195.283664 L 353.264062 201.144492 L 353.678906 207.462101 L 350.732812 214.194324 L 353.678906 224.74241 L 349.045312 223.449374 L 346.507031 227.223073 L 342.302344 227.201991 L 337.66875 230.125378 L 330.082031 232.198453 L 328.394531 236.386767 L 322.502344 235.944043 L 318.705469 237.602503 L 317.861719 239.282045 L 314.500781 239.260963 L 315.330469 242.634102 L 317.861719 243.913084 L 317.861719 245.185038 L 314.486719 245.163956 L 315.330469 246.428883 L 331.755469 253.681132 L 330.496875 255.775289 L 331.755469 258.31217 L 330.496875 259.984685 L 331.340625 262.514539 L 329.653125 265.451981 L 331.326562 266.723936 L 330.911719 269.668405 L 332.599219 270.933332 L 330.911719 273.041544 L 328.802344 273.856719 L 324.16875 272.149068 L 321.644531 268.354286 L 318.276562 273.807528 L 317.41875 279.267796 L 308.158594 284.685901 L 299.735156 285.901636 L 296.782031 292.191135 L 292.992187 293.013337 L 289.617187 295.515082 L 285.834375 295.079385 L 281.200781 300.511544 L 275.294531 300.061792 L 274.879687 302.577592 L 276.982031 308.480585 L 275.294531 312.261312 L 264.346875 308.403284 L 260.55 309.654156 L 257.189062 308.375174 L 249.595312 314.207894 L 245.8125 313.357582 L 243.28125 307.454589 L 232.755469 304.025231 L 226.441406 298.94444 L 225.597656 289.696417 L 221.392969 287.560096 L 218.861719 283.758287 L 211.703906 280.778681 L 205.382812 279.907287 L 201.178125 276.513066 L 202.865625 263.470262 L 200.763281 258.839223 L 197.817187 257.974857 L 196.129687 254.173048 L 196.973437 252.493506 L 199.504687 252.092945 L 198.660937 246.604567 L 199.926562 241.558914 L 197.402344 237.34249 L 199.504687 236.927875 L 200.770312 233.561763 L 203.716406 234.847773 L 203.301562 229.373449 L 209.19375 224.77052 L 215.936719 223.119087 L 217.624219 226.499254 L 220.570312 226.513308 L 220.999219 223.568839 L 224.360156 223.161252 L 224.360156 221.903352 L 227.735156 222.339049 L 229.415625 217.722065 L 232.790625 216.056578 L 236.995312 216.492275 L 239.104687 213.976475 L 235.321875 212.697493 L 236.158594 209.745997 L 233.634375 206.780445 L 236.158594 205.958243 L 237.846094 202.599159 L 250.903125 209.408683 L 258.904687 209.036232 L 262.694531 204.419248 L 265.21875 207.799415 L 271.125 209.521121 L 274.485937 207.855634 L 283.33125 208.326468 L 285.8625 204.974411 L 280.385156 202.416447 L 277.867969 198.600584 L 281.242969 185.550752 L 276.609375 184.257716 L 275.765625 182.149504 L 274.492969 182.978734 L 271.546875 180.441852 L 272.390625 177.490356 L 270.288281 175.368089 L 270.288281 172.409565 L 280.814062 178.382832 L 286.298437 168.713167 Z M 287.578125 159.437035 " transform="matrix(0.555556,0,0,0.555862,0,0)"/>
<path id="PR-26" style="fill-rule:nonzero;fill:rgb(18.431373%,56.470588%,94.901961%);fill-opacity:1;stroke-width:0.75;stroke-linecap:butt;stroke-linejoin:miter;stroke:rgb(100%,100%,100%);stroke-opacity:1;stroke-miterlimit:4;" d="M 158.252344 183.590115 L 159.539062 183.154418 L 159.103125 179.802361 L 161.205469 179.387746 L 160.776562 181.502985 L 166.253906 185.747519 L 166.253906 187.848703 L 168.370312 185.761573 L 174.255469 187.05461 L 181.849219 182.037066 L 184.366406 182.472763 L 187.319531 179.542348 L 192.382031 184.651248 L 197.430469 184.651248 L 200.791406 187.630855 L 203.315625 187.21624 L 205.432031 183.013871 L 212.167969 185.585889 L 212.167969 190.645597 L 213.848437 192.339194 L 215.114062 198.249215 L 222.686719 199.556306 L 228.164062 202.957555 L 237.853125 202.599159 L 236.165625 205.958243 L 233.641406 206.780445 L 236.165625 209.745997 L 235.321875 212.697493 L 239.111719 213.976475 L 237.002344 216.492275 L 232.797656 216.056578 L 229.422656 217.722065 L 227.735156 222.339049 L 224.367187 221.903352 L 224.367187 223.161252 L 221.00625 223.561812 L 220.577344 226.513308 L 217.63125 226.499254 L 215.94375 223.119087 L 209.200781 224.77052 L 203.308594 229.366422 L 203.723437 234.840745 L 200.777344 233.561763 L 199.511719 236.927875 L 197.409375 237.34249 L 199.933594 241.558914 L 198.667969 246.604567 L 199.511719 252.092945 L 196.980469 252.493506 L 196.136719 254.173048 L 197.824219 257.967829 L 200.770312 258.839223 L 202.872656 263.470262 L 201.185156 276.506039 L 197.810156 275.641672 L 194.442187 276.892544 L 188.55 274.756223 L 181.8 275.986013 L 178.439062 271.326865 L 164.960156 263.674056 L 162.428906 263.667029 L 153.597656 256.878586 L 153.16875 251.825905 L 150.222656 247.602454 L 140.540625 244.587711 L 139.696875 242.486527 L 135.070312 239.092306 L 134.226562 234.875882 L 140.11875 236.168919 L 146.432812 234.946156 L 146.032031 216.822561 L 150.658594 212.641274 L 149.4 197.033479 L 151.93125 191.987826 L 158.252344 185.276685 Z M 158.252344 183.590115 " transform="matrix(0.555556,0,0,0.555862,0,0)"/>
<path id="PR-32" style="fill-rule:nonzero;fill:rgb(18.431373%,56.470588%,94.901961%);fill-opacity:1;stroke-width:0.75;stroke-linecap:butt;stroke-linejoin:miter;stroke:rgb(100%,100%,100%);stroke-opacity:1;stroke-miterlimit:4;" d="M 451.750781 385.078949 L 453.853125 383.828077 L 456.384375 384.263774 L 465.222656 398.578532 L 476.170312 398.641778 L 481.647656 403.701487 L 485.859375 401.20677 L 493.453125 402.092219 L 495.970312 398.754216 L 498.923437 398.346629 L 500.596875 396.259499 L 500.182031 391.642515 L 509.878125 395.465406 L 516.192187 392.577156 L 522.098437 392.183623 L 528.405469 404.804784 L 530.514844 403.560939 L 533.032031 404.411252 L 532.617188 411.544035 L 533.446875 412.801935 L 537.665625 412.823017 L 539.767969 417.454056 L 539.353125 421.220727 L 540.611719 424.579812 L 548.198437 419.175762 L 550.300781 412.471648 L 555.363281 408.726058 L 557.8875 409.583398 L 562.886719 407.995212 L 567.435937 408.353608 L 575.332031 405.697261 L 577.026562 402.134383 L 581.259375 402.134383 L 591.180469 405.704288 L 586.525781 411.417542 L 587.3625 413.947396 L 590.322656 412.703551 L 588.628125 419.400638 L 590.7375 423.188392 L 584.838281 434.895995 L 581.463281 437.805327 L 584.409375 439.491897 L 586.511719 444.959193 L 593.669531 449.182644 L 604.624219 450.096202 L 604.209375 454.277489 L 602.092969 455.106719 L 602.114062 465.935901 L 597.501562 464.635837 L 586.905469 455.45106 L 580.422656 455.176993 L 577.610156 457.439807 L 579.121875 465.394793 L 576.752344 466.968924 L 569.032031 464.502317 L 566.416406 460.257783 L 565.959375 455.591608 L 561.972656 453.595834 L 541.814062 450.79894 L 519.496875 450.510817 L 521.198437 442.176353 L 517.725 439.899484 L 505.74375 443.075857 L 500.688281 438.388599 L 498.670312 433.244562 L 496.075781 432.183429 L 494.191406 433.553767 L 492.890625 439.302158 L 489.867187 440.960618 L 498.234375 449.435629 L 498.375 455.493225 L 495.780469 458.205791 L 495.597656 460.665371 L 492.609375 461.902189 L 489.31875 461.143232 L 490.471875 457.411697 L 488.784375 456.139743 L 488.369531 453.630971 L 487.110937 454.038558 L 487.525781 449.435629 L 484.150781 453.181219 L 482.048437 452.752549 L 480.367969 450.222695 L 478.265625 450.215668 L 475.319531 453.55367 L 475.734375 448.943713 L 472.373437 448.922631 L 471.944531 447.664731 L 476.163281 446.020326 L 474.060937 440.55303 L 469.842187 435.921991 L 468.583594 436.329579 L 468.583594 438.002094 L 465.208594 438.409681 L 462.684375 437.973984 L 461.840625 436.294442 L 460.160156 427.482117 L 458.472656 427.053447 L 455.526562 419.070351 L 453.417187 417.383782 L 454.267969 410.672641 L 455.955469 410.265053 L 458.057812 411.951623 L 458.472656 410.279108 L 454.267969 403.9615 L 453.424219 395.570817 L 449.641406 390.096493 L 449.641406 387.580694 Z M 451.750781 385.078949 " transform="matrix(0.555556,0,0,0.555862,0,0)"/>
<path id="PR-27" style="fill-rule:nonzero;fill:rgb(18.431373%,56.470588%,94.901961%);fill-opacity:1;stroke-width:0.75;stroke-linecap:butt;stroke-linejoin:miter;stroke:rgb(100%,100%,100%);stroke-opacity:1;stroke-miterlimit:4;" d="M 224.001562 132.072445 L 230.294531 135.052051 L 241.249219 137.223509 L 242.929687 142.3043 L 247.978125 144.433594 L 256.830469 143.217858 L 261.878906 148.312704 L 268.621875 151.313392 L 269.036719 153.414576 L 272.826562 157.237467 L 274.514062 156.40121 L 278.296875 158.952146 L 287.571094 159.437035 L 286.305469 168.713167 L 280.814062 178.382832 L 270.295312 172.409565 L 270.295312 175.368089 L 272.397656 177.490356 L 271.553906 180.441852 L 274.5 182.978734 L 275.772656 182.149504 L 276.616406 184.257716 L 281.242969 185.550752 L 277.875 198.600584 L 280.392187 202.416447 L 285.8625 204.974411 L 283.338281 208.326468 L 274.485937 207.855634 L 271.125 209.521121 L 265.225781 207.799415 L 262.694531 204.419248 L 258.904687 209.036232 L 250.903125 209.408683 L 237.853125 202.599159 L 228.164062 202.957555 L 222.686719 199.556306 L 215.107031 198.256242 L 213.848437 192.339194 L 212.160937 190.645597 L 212.160937 185.585889 L 215.535937 180.961878 L 216.379687 177.174124 L 215.964844 171.671691 L 213.01875 164.925413 L 213.8625 162.395559 L 217.659375 163.281008 L 218.910937 162.002026 L 220.605469 163.281008 L 220.605469 156.499593 L 218.503125 149.746288 Z M 224.001562 132.072445 " transform="matrix(0.555556,0,0,0.555862,0,0)"/>
</g>
</svg>
